<svg xmlns="http://www.w3.org/2000/svg" width="980" height="520" viewBox="0 0 980 520" role="img">
  <rect width="100%" height="100%" fill="#ffffff"/>
  <style>
    text { font-family: Arial, sans-serif; fill: #20242a; }
    .title { font-size: 20px; font-weight: 700; }
    .axis { stroke: #c9ced6; stroke-width: 1; }
    .grid { stroke: #edf0f4; stroke-width: 1; }
    .tick { font-size: 12px; fill: #59616d; }
    .label { font-size: 13px; fill: #303640; }
    .small { font-size: 11px; fill: #59616d; }
    .value { font-size: 11px; fill: #20242a; }
  </style>
  <text class="title" x="86" y="34">Test main metrics: full-support gains are the clearest signal</text>
  <line class="grid" x1="86" y1="416.0" x2="948" y2="416.0"/>
  <text class="tick" x="74" y="420.0" text-anchor="end">0.0</text>
  <line class="grid" x1="86" y1="346.0" x2="948" y2="346.0"/>
  <text class="tick" x="74" y="350.0" text-anchor="end">0.2</text>
  <line class="grid" x1="86" y1="276.0" x2="948" y2="276.0"/>
  <text class="tick" x="74" y="280.0" text-anchor="end">0.4</text>
  <line class="grid" x1="86" y1="206.0" x2="948" y2="206.0"/>
  <text class="tick" x="74" y="210.0" text-anchor="end">0.6</text>
  <line class="grid" x1="86" y1="136.0" x2="948" y2="136.0"/>
  <text class="tick" x="74" y="140.0" text-anchor="end">0.8</text>
  <line class="grid" x1="86" y1="66.0" x2="948" y2="66.0"/>
  <text class="tick" x="74" y="70.0" text-anchor="end">1.0</text>
  <line class="axis" x1="86" y1="66" x2="86" y2="416"/>
  <line class="axis" x1="86" y1="416" x2="948" y2="416"/>
  <rect x="128.2" y="179.2" width="24.0" height="236.8" rx="2" fill="#3b6fb6"/>
  <text class="value" x="140.2" y="174.2" text-anchor="middle">0.677</text>
  <rect x="160.2" y="283.0" width="24.0" height="133.0" rx="2" fill="#d95f02"/>
  <text class="value" x="172.2" y="278.0" text-anchor="middle">0.380</text>
  <rect x="192.2" y="210.9" width="24.0" height="205.1" rx="2" fill="#2f8f5b"/>
  <text class="value" x="204.2" y="205.9" text-anchor="middle">0.586</text>
  <text class="label" x="172.2" y="440" text-anchor="middle">BM25</text>
  <rect x="300.6" y="163.9" width="24.0" height="252.1" rx="2" fill="#3b6fb6"/>
  <text class="value" x="312.6" y="158.9" text-anchor="middle">0.720</text>
  <rect x="332.6" y="257.4" width="24.0" height="158.6" rx="2" fill="#d95f02"/>
  <text class="value" x="344.6" y="252.4" text-anchor="middle">0.453</text>
  <rect x="364.6" y="173.8" width="24.0" height="242.2" rx="2" fill="#2f8f5b"/>
  <text class="value" x="376.6" y="168.8" text-anchor="middle">0.692</text>
  <text class="label" x="344.6" y="440" text-anchor="middle">BM25+Graph</text>
  <rect x="473.0" y="151.3" width="24.0" height="264.7" rx="2" fill="#3b6fb6"/>
  <text class="value" x="485.0" y="146.3" text-anchor="middle">0.756</text>
  <rect x="505.0" y="236.8" width="24.0" height="179.2" rx="2" fill="#d95f02"/>
  <text class="value" x="517.0" y="231.8" text-anchor="middle">0.512</text>
  <rect x="537.0" y="152.8" width="24.0" height="263.2" rx="2" fill="#2f8f5b"/>
  <text class="value" x="549.0" y="147.8" text-anchor="middle">0.752</text>
  <text class="label" x="517.0" y="440" text-anchor="middle">Dense</text>
  <rect x="645.4" y="146.5" width="24.0" height="269.5" rx="2" fill="#3b6fb6"/>
  <text class="value" x="657.4" y="141.5" text-anchor="middle">0.770</text>
  <rect x="677.4" y="229.8" width="24.0" height="186.2" rx="2" fill="#d95f02"/>
  <text class="value" x="689.4" y="224.8" text-anchor="middle">0.532</text>
  <rect x="709.4" y="147.6" width="24.0" height="268.4" rx="2" fill="#2f8f5b"/>
  <text class="value" x="721.4" y="142.6" text-anchor="middle">0.767</text>
  <text class="label" x="689.4" y="440" text-anchor="middle">Dense+Graph</text>
  <rect x="817.8" y="133.5" width="24.0" height="282.5" rx="2" fill="#3b6fb6"/>
  <text class="value" x="829.8" y="128.5" text-anchor="middle">0.807</text>
  <rect x="849.8" y="200.1" width="24.0" height="215.9" rx="2" fill="#d95f02"/>
  <text class="value" x="861.8" y="195.1" text-anchor="middle">0.617</text>
  <rect x="881.8" y="126.6" width="24.0" height="289.4" rx="2" fill="#2f8f5b"/>
  <text class="value" x="893.8" y="121.6" text-anchor="middle">0.827</text>
  <text class="label" x="861.8" y="440" text-anchor="middle">Dense+R-GCN</text>
  <rect x="86" y="471" width="14" height="14" fill="#3b6fb6"/>
  <text class="small" x="106" y="482">Recall@5</text>
  <rect x="236" y="471" width="14" height="14" fill="#d95f02"/>
  <text class="small" x="256" y="482">Full Support@5</text>
  <rect x="386" y="471" width="14" height="14" fill="#2f8f5b"/>
  <text class="small" x="406" y="482">Full Support@10</text>
</svg>
