<svg xmlns="http://www.w3.org/2000/svg" width="980" height="520" viewBox="0 0 980 520" role="img">
  <rect width="100%" height="100%" fill="#ffffff"/>
  <style>
    text { font-family: Arial, sans-serif; fill: #20242a; }
    .title { font-size: 20px; font-weight: 700; }
    .axis { stroke: #c9ced6; stroke-width: 1; }
    .grid { stroke: #edf0f4; stroke-width: 1; }
    .tick { font-size: 12px; fill: #59616d; }
    .label { font-size: 13px; fill: #303640; }
    .small { font-size: 11px; fill: #59616d; }
    .value { font-size: 11px; fill: #20242a; }
  </style>
  <text class="title" x="86" y="34">Graph connectivity metrics: R-GCN retrieves more connected evidence</text>
  <line class="grid" x1="86" y1="416.0" x2="948" y2="416.0"/>
  <text class="tick" x="74" y="420.0" text-anchor="end">0.0</text>
  <line class="grid" x1="86" y1="346.0" x2="948" y2="346.0"/>
  <text class="tick" x="74" y="350.0" text-anchor="end">0.2</text>
  <line class="grid" x1="86" y1="276.0" x2="948" y2="276.0"/>
  <text class="tick" x="74" y="280.0" text-anchor="end">0.4</text>
  <line class="grid" x1="86" y1="206.0" x2="948" y2="206.0"/>
  <text class="tick" x="74" y="210.0" text-anchor="end">0.6</text>
  <line class="grid" x1="86" y1="136.0" x2="948" y2="136.0"/>
  <text class="tick" x="74" y="140.0" text-anchor="end">0.8</text>
  <line class="grid" x1="86" y1="66.0" x2="948" y2="66.0"/>
  <text class="tick" x="74" y="70.0" text-anchor="end">1.0</text>
  <line class="axis" x1="86" y1="66" x2="86" y2="416"/>
  <line class="axis" x1="86" y1="416" x2="948" y2="416"/>
  <rect x="128.2" y="322.6" width="24.0" height="93.5" rx="2" fill="#3b6fb6"/>
  <text class="value" x="140.2" y="317.6" text-anchor="middle">0.267</text>
  <rect x="160.2" y="258.9" width="24.0" height="157.2" rx="2" fill="#d95f02"/>
  <text class="value" x="172.2" y="253.9" text-anchor="middle">0.449</text>
  <rect x="192.2" y="212.3" width="24.0" height="203.7" rx="2" fill="#2f8f5b"/>
  <text class="value" x="204.2" y="207.3" text-anchor="middle">0.582</text>
  <text class="label" x="172.2" y="440" text-anchor="middle">BM25</text>
  <rect x="300.6" y="290.0" width="24.0" height="126.0" rx="2" fill="#3b6fb6"/>
  <text class="value" x="312.6" y="285.0" text-anchor="middle">0.360</text>
  <rect x="332.6" y="216.5" width="24.0" height="199.5" rx="2" fill="#d95f02"/>
  <text class="value" x="344.6" y="211.5" text-anchor="middle">0.570</text>
  <rect x="364.6" y="174.9" width="24.0" height="241.1" rx="2" fill="#2f8f5b"/>
  <text class="value" x="376.6" y="169.9" text-anchor="middle">0.689</text>
  <text class="label" x="344.6" y="440" text-anchor="middle">BM25+Graph</text>
  <rect x="473.0" y="287.9" width="24.0" height="128.1" rx="2" fill="#3b6fb6"/>
  <text class="value" x="485.0" y="282.9" text-anchor="middle">0.366</text>
  <rect x="505.0" y="208.1" width="24.0" height="207.9" rx="2" fill="#d95f02"/>
  <text class="value" x="517.0" y="203.1" text-anchor="middle">0.594</text>
  <rect x="537.0" y="155.6" width="24.0" height="260.4" rx="2" fill="#2f8f5b"/>
  <text class="value" x="549.0" y="150.6" text-anchor="middle">0.744</text>
  <text class="label" x="517.0" y="440" text-anchor="middle">Dense</text>
  <rect x="645.4" y="274.2" width="24.0" height="141.8" rx="2" fill="#3b6fb6"/>
  <text class="value" x="657.4" y="269.2" text-anchor="middle">0.405</text>
  <rect x="677.4" y="198.3" width="24.0" height="217.7" rx="2" fill="#d95f02"/>
  <text class="value" x="689.4" y="193.3" text-anchor="middle">0.622</text>
  <rect x="709.4" y="148.2" width="24.0" height="267.8" rx="2" fill="#2f8f5b"/>
  <text class="value" x="721.4" y="143.2" text-anchor="middle">0.765</text>
  <text class="label" x="689.4" y="440" text-anchor="middle">Dense+Graph</text>
  <rect x="817.8" y="252.5" width="24.0" height="163.5" rx="2" fill="#3b6fb6"/>
  <text class="value" x="829.8" y="247.5" text-anchor="middle">0.467</text>
  <rect x="849.8" y="176.9" width="24.0" height="239.1" rx="2" fill="#d95f02"/>
  <text class="value" x="861.8" y="171.9" text-anchor="middle">0.683</text>
  <rect x="881.8" y="130.1" width="24.0" height="285.9" rx="2" fill="#2f8f5b"/>
  <text class="value" x="893.8" y="125.1" text-anchor="middle">0.817</text>
  <text class="label" x="861.8" y="440" text-anchor="middle">Dense+R-GCN</text>
  <rect x="86" y="471" width="14" height="14" fill="#3b6fb6"/>
  <text class="small" x="106" y="482">Conn Recall@5</text>
  <rect x="236" y="471" width="14" height="14" fill="#d95f02"/>
  <text class="small" x="256" y="482">Conn Recall@10</text>
  <rect x="386" y="471" width="14" height="14" fill="#2f8f5b"/>
  <text class="small" x="406" y="482">Query-Evidence Conn@10</text>
</svg>
