<svg xmlns="http://www.w3.org/2000/svg" width="1080" height="560" viewBox="0 0 1080 560" role="img">
<rect width="100%" height="100%" fill="#ffffff"/>
<style>
text { font-family: Arial, sans-serif; fill: #20242a; }
.title { font-size: 20px; font-weight: 700; }
.axis { stroke: #c9ced6; stroke-width: 1; }
.grid { stroke: #edf0f4; stroke-width: 1; }
.tick { font-size: 12px; fill: #59616d; }
.label { font-size: 13px; fill: #303640; }
.small { font-size: 11px; fill: #59616d; }
.value { font-size: 11px; fill: #20242a; }
</style>
<text class="title" x="88" y="34">Cloud-full graph connectivity metrics</text>
<line class="grid" x1="88" y1="442.0" x2="1048" y2="442.0"/>
<text class="tick" x="76" y="446.0" text-anchor="end">0.0</text>
<line class="grid" x1="88" y1="367.2" x2="1048" y2="367.2"/>
<text class="tick" x="76" y="371.2" text-anchor="end">0.2</text>
<line class="grid" x1="88" y1="292.4" x2="1048" y2="292.4"/>
<text class="tick" x="76" y="296.4" text-anchor="end">0.4</text>
<line class="grid" x1="88" y1="217.6" x2="1048" y2="217.6"/>
<text class="tick" x="76" y="221.6" text-anchor="end">0.6</text>
<line class="grid" x1="88" y1="142.8" x2="1048" y2="142.8"/>
<text class="tick" x="76" y="146.8" text-anchor="end">0.8</text>
<line class="grid" x1="88" y1="68.0" x2="1048" y2="68.0"/>
<text class="tick" x="76" y="72.0" text-anchor="end">1.0</text>
<line class="axis" x1="88" y1="68" x2="88" y2="442"/>
<line class="axis" x1="88" y1="442" x2="1048" y2="442"/>
<rect x="143.0" y="343.6" width="22.0" height="98.4" rx="2" fill="#3b6fb6"/>
<text class="value" x="154.0" y="338.6" text-anchor="middle">0.263</text>
<rect x="173.0" y="271.3" width="22.0" height="170.7" rx="2" fill="#d95f02"/>
<text class="value" x="184.0" y="266.3" text-anchor="middle">0.457</text>
<rect x="203.0" y="219.5" width="22.0" height="222.5" rx="2" fill="#2f8f5b"/>
<text class="value" x="214.0" y="214.5" text-anchor="middle">0.595</text>
<text class="label" x="184.0" y="466" text-anchor="middle">BM25</text>
<rect x="335.0" y="310.3" width="22.0" height="131.7" rx="2" fill="#3b6fb6"/>
<text class="value" x="346.0" y="305.3" text-anchor="middle">0.352</text>
<rect x="365.0" y="228.0" width="22.0" height="214.0" rx="2" fill="#d95f02"/>
<text class="value" x="376.0" y="223.0" text-anchor="middle">0.572</text>
<rect x="395.0" y="180.7" width="22.0" height="261.3" rx="2" fill="#2f8f5b"/>
<text class="value" x="406.0" y="175.7" text-anchor="middle">0.699</text>
<text class="label" x="376.0" y="466" text-anchor="middle">BM25+Graph</text>
<rect x="527.0" y="300.9" width="22.0" height="141.1" rx="2" fill="#3b6fb6"/>
<text class="value" x="538.0" y="295.9" text-anchor="middle">0.377</text>
<rect x="557.0" y="219.6" width="22.0" height="222.4" rx="2" fill="#d95f02"/>
<text class="value" x="568.0" y="214.6" text-anchor="middle">0.595</text>
<rect x="587.0" y="162.5" width="22.0" height="279.5" rx="2" fill="#2f8f5b"/>
<text class="value" x="598.0" y="157.5" text-anchor="middle">0.747</text>
<text class="label" x="568.0" y="466" text-anchor="middle">Dense</text>
<rect x="719.0" y="289.8" width="22.0" height="152.2" rx="2" fill="#3b6fb6"/>
<text class="value" x="730.0" y="284.8" text-anchor="middle">0.407</text>
<rect x="749.0" y="209.4" width="22.0" height="232.6" rx="2" fill="#d95f02"/>
<text class="value" x="760.0" y="204.4" text-anchor="middle">0.622</text>
<rect x="779.0" y="155.3" width="22.0" height="286.7" rx="2" fill="#2f8f5b"/>
<text class="value" x="790.0" y="150.3" text-anchor="middle">0.767</text>
<text class="label" x="760.0" y="466" text-anchor="middle">Dense+Graph</text>
<rect x="911.0" y="228.7" width="22.0" height="213.3" rx="2" fill="#3b6fb6"/>
<text class="value" x="922.0" y="223.7" text-anchor="middle">0.570</text>
<rect x="941.0" y="168.3" width="22.0" height="273.7" rx="2" fill="#d95f02"/>
<text class="value" x="952.0" y="163.3" text-anchor="middle">0.732</text>
<rect x="971.0" y="108.0" width="22.0" height="334.0" rx="2" fill="#2f8f5b"/>
<text class="value" x="982.0" y="103.0" text-anchor="middle">0.893</text>
<text class="label" x="952.0" y="466" text-anchor="middle">Dense+R-GCN</text>
<rect x="88" y="506" width="14" height="14" fill="#3b6fb6"/>
<text class="small" x="108" y="517">Connected Evidence Recall@5</text>
<rect x="298" y="506" width="14" height="14" fill="#d95f02"/>
<text class="small" x="318" y="517">Connected Evidence Recall@10</text>
<rect x="508" y="506" width="14" height="14" fill="#2f8f5b"/>
<text class="small" x="528" y="517">Query-Evidence Connectivity@10</text>
</svg>
