<svg xmlns="http://www.w3.org/2000/svg" width="1080" height="560" viewBox="0 0 1080 560" role="img">
<rect width="100%" height="100%" fill="#ffffff"/>
<style>
text { font-family: Arial, sans-serif; fill: #20242a; }
.title { font-size: 20px; font-weight: 700; }
.axis { stroke: #c9ced6; stroke-width: 1; }
.grid { stroke: #edf0f4; stroke-width: 1; }
.tick { font-size: 12px; fill: #59616d; }
.label { font-size: 13px; fill: #303640; }
.small { font-size: 11px; fill: #59616d; }
.value { font-size: 11px; fill: #20242a; }
</style>
<text class="title" x="88" y="34">Cloud-full test main metrics: R-GCN leads all baselines</text>
<line class="grid" x1="88" y1="442.0" x2="1048" y2="442.0"/>
<text class="tick" x="76" y="446.0" text-anchor="end">0.0</text>
<line class="grid" x1="88" y1="367.2" x2="1048" y2="367.2"/>
<text class="tick" x="76" y="371.2" text-anchor="end">0.2</text>
<line class="grid" x1="88" y1="292.4" x2="1048" y2="292.4"/>
<text class="tick" x="76" y="296.4" text-anchor="end">0.4</text>
<line class="grid" x1="88" y1="217.6" x2="1048" y2="217.6"/>
<text class="tick" x="76" y="221.6" text-anchor="end">0.6</text>
<line class="grid" x1="88" y1="142.8" x2="1048" y2="142.8"/>
<text class="tick" x="76" y="146.8" text-anchor="end">0.8</text>
<line class="grid" x1="88" y1="68.0" x2="1048" y2="68.0"/>
<text class="tick" x="76" y="72.0" text-anchor="end">1.0</text>
<line class="axis" x1="88" y1="68" x2="88" y2="442"/>
<line class="axis" x1="88" y1="442" x2="1048" y2="442"/>
<rect x="128.0" y="188.1" width="22.0" height="253.9" rx="2" fill="#3b6fb6"/>
<text class="value" x="139.0" y="183.1" text-anchor="middle">0.679</text>
<rect x="158.0" y="301.7" width="22.0" height="140.3" rx="2" fill="#d95f02"/>
<text class="value" x="169.0" y="296.7" text-anchor="middle">0.375</text>
<rect x="188.0" y="217.5" width="22.0" height="224.5" rx="2" fill="#2f8f5b"/>
<text class="value" x="199.0" y="212.5" text-anchor="middle">0.600</text>
<rect x="218.0" y="132.7" width="22.0" height="309.3" rx="2" fill="#8b5cf6"/>
<text class="value" x="229.0" y="127.7" text-anchor="middle">0.827</text>
<text class="label" x="184.0" y="466" text-anchor="middle">BM25</text>
<rect x="320.0" y="172.9" width="22.0" height="269.1" rx="2" fill="#3b6fb6"/>
<text class="value" x="331.0" y="167.9" text-anchor="middle">0.719</text>
<rect x="350.0" y="274.1" width="22.0" height="167.9" rx="2" fill="#d95f02"/>
<text class="value" x="361.0" y="269.1" text-anchor="middle">0.449</text>
<rect x="380.0" y="179.8" width="22.0" height="262.2" rx="2" fill="#2f8f5b"/>
<text class="value" x="391.0" y="174.8" text-anchor="middle">0.701</text>
<rect x="410.0" y="134.5" width="22.0" height="307.5" rx="2" fill="#8b5cf6"/>
<text class="value" x="421.0" y="129.5" text-anchor="middle">0.822</text>
<text class="label" x="376.0" y="466" text-anchor="middle">BM25+Graph</text>
<rect x="512.0" y="154.1" width="22.0" height="287.9" rx="2" fill="#3b6fb6"/>
<text class="value" x="523.0" y="149.1" text-anchor="middle">0.770</text>
<rect x="542.0" y="243.0" width="22.0" height="199.0" rx="2" fill="#d95f02"/>
<text class="value" x="553.0" y="238.0" text-anchor="middle">0.532</text>
<rect x="572.0" y="160.0" width="22.0" height="282.0" rx="2" fill="#2f8f5b"/>
<text class="value" x="583.0" y="155.0" text-anchor="middle">0.754</text>
<rect x="602.0" y="123.0" width="22.0" height="319.0" rx="2" fill="#8b5cf6"/>
<text class="value" x="613.0" y="118.0" text-anchor="middle">0.853</text>
<text class="label" x="568.0" y="466" text-anchor="middle">Dense</text>
<rect x="704.0" y="151.1" width="22.0" height="290.9" rx="2" fill="#3b6fb6"/>
<text class="value" x="715.0" y="146.1" text-anchor="middle">0.778</text>
<rect x="734.0" y="236.2" width="22.0" height="205.8" rx="2" fill="#d95f02"/>
<text class="value" x="745.0" y="231.2" text-anchor="middle">0.550</text>
<rect x="764.0" y="153.9" width="22.0" height="288.1" rx="2" fill="#2f8f5b"/>
<text class="value" x="775.0" y="148.9" text-anchor="middle">0.770</text>
<rect x="794.0" y="123.3" width="22.0" height="318.7" rx="2" fill="#8b5cf6"/>
<text class="value" x="805.0" y="118.3" text-anchor="middle">0.852</text>
<text class="label" x="760.0" y="466" text-anchor="middle">Dense+Graph</text>
<rect x="896.0" y="109.6" width="22.0" height="332.4" rx="2" fill="#3b6fb6"/>
<text class="value" x="907.0" y="104.6" text-anchor="middle">0.889</text>
<rect x="926.0" y="157.1" width="22.0" height="284.9" rx="2" fill="#d95f02"/>
<text class="value" x="937.0" y="152.1" text-anchor="middle">0.762</text>
<rect x="956.0" y="102.8" width="22.0" height="339.2" rx="2" fill="#2f8f5b"/>
<text class="value" x="967.0" y="97.8" text-anchor="middle">0.907</text>
<rect x="986.0" y="98.1" width="22.0" height="343.9" rx="2" fill="#8b5cf6"/>
<text class="value" x="997.0" y="93.1" text-anchor="middle">0.919</text>
<text class="label" x="952.0" y="466" text-anchor="middle">Dense+R-GCN</text>
<rect x="88" y="506" width="14" height="14" fill="#3b6fb6"/>
<text class="small" x="108" y="517">Recall@5</text>
<rect x="298" y="506" width="14" height="14" fill="#d95f02"/>
<text class="small" x="318" y="517">Full Support@5</text>
<rect x="508" y="506" width="14" height="14" fill="#2f8f5b"/>
<text class="small" x="528" y="517">Full Support@10</text>
<rect x="718" y="506" width="14" height="14" fill="#8b5cf6"/>
<text class="small" x="738" y="517">MRR</text>
</svg>
