<svg xmlns="http://www.w3.org/2000/svg" width="1120" height="560" viewBox="0 0 1120 560" role="img">
<rect width="100%" height="100%" fill="#ffffff"/>
<style>
text { font-family: Arial, sans-serif; fill: #20242a; }
.title { font-size: 20px; font-weight: 700; }
.axis { stroke: #c9ced6; stroke-width: 1; }
.grid { stroke: #edf0f4; stroke-width: 1; }
.tick { font-size: 12px; fill: #59616d; }
.label { font-size: 13px; fill: #303640; }
.small { font-size: 11px; fill: #59616d; }
.value { font-size: 11px; fill: #20242a; }
</style>
<text class="title" x="76" y="34">R-GCN training dynamics over 20 epochs</text>
<line class="grid" x1="76" y1="476.0" x2="1082" y2="476.0"/>
<text class="tick" x="64" y="480.0" text-anchor="end">0.07</text>
<line class="grid" x1="76" y1="394.0" x2="1082" y2="394.0"/>
<text class="tick" x="64" y="398.0" text-anchor="end">0.24</text>
<line class="grid" x1="76" y1="312.0" x2="1082" y2="312.0"/>
<text class="tick" x="64" y="316.0" text-anchor="end">0.42</text>
<line class="grid" x1="76" y1="230.0" x2="1082" y2="230.0"/>
<text class="tick" x="64" y="234.0" text-anchor="end">0.60</text>
<line class="grid" x1="76" y1="148.0" x2="1082" y2="148.0"/>
<text class="tick" x="64" y="152.0" text-anchor="end">0.77</text>
<line class="grid" x1="76" y1="66.0" x2="1082" y2="66.0"/>
<text class="tick" x="64" y="70.0" text-anchor="end">0.95</text>
<line class="axis" x1="76" y1="66" x2="76" y2="476"/>
<line class="axis" x1="76" y1="476" x2="1082" y2="476"/>
<polyline points="76.0,102.3 128.9,152.2 181.9,174.2 234.8,188.5 287.8,199.3 340.7,208.7 393.7,216.5 446.6,223.4 499.6,229.7 552.5,235.3 605.5,240.5 658.4,245.4 711.4,249.9 764.3,254.6 817.3,258.8 870.2,262.7 923.2,266.4 976.1,269.6 1029.1,272.3 1082.0,276.5" fill="none" stroke="#5b8def" stroke-width="3"/>
<circle cx="76.0" cy="102.3" r="3" fill="#5b8def"/>
<circle cx="128.9" cy="152.2" r="3" fill="#5b8def"/>
<circle cx="181.9" cy="174.2" r="3" fill="#5b8def"/>
<circle cx="234.8" cy="188.5" r="3" fill="#5b8def"/>
<circle cx="287.8" cy="199.3" r="3" fill="#5b8def"/>
<circle cx="340.7" cy="208.7" r="3" fill="#5b8def"/>
<circle cx="393.7" cy="216.5" r="3" fill="#5b8def"/>
<circle cx="446.6" cy="223.4" r="3" fill="#5b8def"/>
<circle cx="499.6" cy="229.7" r="3" fill="#5b8def"/>
<circle cx="552.5" cy="235.3" r="3" fill="#5b8def"/>
<circle cx="605.5" cy="240.5" r="3" fill="#5b8def"/>
<circle cx="658.4" cy="245.4" r="3" fill="#5b8def"/>
<circle cx="711.4" cy="249.9" r="3" fill="#5b8def"/>
<circle cx="764.3" cy="254.6" r="3" fill="#5b8def"/>
<circle cx="817.3" cy="258.8" r="3" fill="#5b8def"/>
<circle cx="870.2" cy="262.7" r="3" fill="#5b8def"/>
<circle cx="923.2" cy="266.4" r="3" fill="#5b8def"/>
<circle cx="976.1" cy="269.6" r="3" fill="#5b8def"/>
<circle cx="1029.1" cy="272.3" r="3" fill="#5b8def"/>
<circle cx="1082.0" cy="276.5" r="3" fill="#5b8def"/>
<polyline points="76.0,426.2 128.9,429.6 181.9,435.9 234.8,436.5 287.8,437.5 340.7,440.5 393.7,441.8 446.6,440.2 499.6,440.6 552.5,446.9 605.5,445.8 658.4,441.9 711.4,446.5 764.3,445.5 817.3,446.9 870.2,447.4 923.2,448.2 976.1,446.8 1029.1,447.9 1082.0,443.7" fill="none" stroke="#d94848" stroke-width="3"/>
<circle cx="76.0" cy="426.2" r="3" fill="#d94848"/>
<circle cx="128.9" cy="429.6" r="3" fill="#d94848"/>
<circle cx="181.9" cy="435.9" r="3" fill="#d94848"/>
<circle cx="234.8" cy="436.5" r="3" fill="#d94848"/>
<circle cx="287.8" cy="437.5" r="3" fill="#d94848"/>
<circle cx="340.7" cy="440.5" r="3" fill="#d94848"/>
<circle cx="393.7" cy="441.8" r="3" fill="#d94848"/>
<circle cx="446.6" cy="440.2" r="3" fill="#d94848"/>
<circle cx="499.6" cy="440.6" r="3" fill="#d94848"/>
<circle cx="552.5" cy="446.9" r="3" fill="#d94848"/>
<circle cx="605.5" cy="445.8" r="3" fill="#d94848"/>
<circle cx="658.4" cy="441.9" r="3" fill="#d94848"/>
<circle cx="711.4" cy="446.5" r="3" fill="#d94848"/>
<circle cx="764.3" cy="445.5" r="3" fill="#d94848"/>
<circle cx="817.3" cy="446.9" r="3" fill="#d94848"/>
<circle cx="870.2" cy="447.4" r="3" fill="#d94848"/>
<circle cx="923.2" cy="448.2" r="3" fill="#d94848"/>
<circle cx="976.1" cy="446.8" r="3" fill="#d94848"/>
<circle cx="1029.1" cy="447.9" r="3" fill="#d94848"/>
<circle cx="1082.0" cy="443.7" r="3" fill="#d94848"/>
<polyline points="76.0,133.1 128.9,121.3 181.9,116.6 234.8,111.3 287.8,111.5 340.7,108.1 393.7,109.3 446.6,104.7 499.6,105.8 552.5,103.2 605.5,102.1 658.4,102.4 711.4,96.1 764.3,96.4 817.3,98.9 870.2,94.2 923.2,97.0 976.1,95.5 1029.1,93.8 1082.0,97.8" fill="none" stroke="#26a69a" stroke-width="3"/>
<circle cx="76.0" cy="133.1" r="3" fill="#26a69a"/>
<circle cx="128.9" cy="121.3" r="3" fill="#26a69a"/>
<circle cx="181.9" cy="116.6" r="3" fill="#26a69a"/>
<circle cx="234.8" cy="111.3" r="3" fill="#26a69a"/>
<circle cx="287.8" cy="111.5" r="3" fill="#26a69a"/>
<circle cx="340.7" cy="108.1" r="3" fill="#26a69a"/>
<circle cx="393.7" cy="109.3" r="3" fill="#26a69a"/>
<circle cx="446.6" cy="104.7" r="3" fill="#26a69a"/>
<circle cx="499.6" cy="105.8" r="3" fill="#26a69a"/>
<circle cx="552.5" cy="103.2" r="3" fill="#26a69a"/>
<circle cx="605.5" cy="102.1" r="3" fill="#26a69a"/>
<circle cx="658.4" cy="102.4" r="3" fill="#26a69a"/>
<circle cx="711.4" cy="96.1" r="3" fill="#26a69a"/>
<circle cx="764.3" cy="96.4" r="3" fill="#26a69a"/>
<circle cx="817.3" cy="98.9" r="3" fill="#26a69a"/>
<circle cx="870.2" cy="94.2" r="3" fill="#26a69a"/>
<circle cx="923.2" cy="97.0" r="3" fill="#26a69a"/>
<circle cx="976.1" cy="95.5" r="3" fill="#26a69a"/>
<circle cx="1029.1" cy="93.8" r="3" fill="#26a69a"/>
<circle cx="1082.0" cy="97.8" r="3" fill="#26a69a"/>
<polyline points="76.0,226.2 128.9,202.1 181.9,203.0 234.8,191.0 287.8,192.8 340.7,185.4 393.7,184.5 446.6,179.9 499.6,181.7 552.5,175.2 605.5,175.2 658.4,174.3 711.4,161.3 764.3,165.0 817.3,169.7 870.2,159.5 923.2,164.1 976.1,158.5 1029.1,156.7 1082.0,166.9" fill="none" stroke="#f59f00" stroke-width="3"/>
<circle cx="76.0" cy="226.2" r="3" fill="#f59f00"/>
<circle cx="128.9" cy="202.1" r="3" fill="#f59f00"/>
<circle cx="181.9" cy="203.0" r="3" fill="#f59f00"/>
<circle cx="234.8" cy="191.0" r="3" fill="#f59f00"/>
<circle cx="287.8" cy="192.8" r="3" fill="#f59f00"/>
<circle cx="340.7" cy="185.4" r="3" fill="#f59f00"/>
<circle cx="393.7" cy="184.5" r="3" fill="#f59f00"/>
<circle cx="446.6" cy="179.9" r="3" fill="#f59f00"/>
<circle cx="499.6" cy="181.7" r="3" fill="#f59f00"/>
<circle cx="552.5" cy="175.2" r="3" fill="#f59f00"/>
<circle cx="605.5" cy="175.2" r="3" fill="#f59f00"/>
<circle cx="658.4" cy="174.3" r="3" fill="#f59f00"/>
<circle cx="711.4" cy="161.3" r="3" fill="#f59f00"/>
<circle cx="764.3" cy="165.0" r="3" fill="#f59f00"/>
<circle cx="817.3" cy="169.7" r="3" fill="#f59f00"/>
<circle cx="870.2" cy="159.5" r="3" fill="#f59f00"/>
<circle cx="923.2" cy="164.1" r="3" fill="#f59f00"/>
<circle cx="976.1" cy="158.5" r="3" fill="#f59f00"/>
<circle cx="1029.1" cy="156.7" r="3" fill="#f59f00"/>
<circle cx="1082.0" cy="166.9" r="3" fill="#f59f00"/>
<polyline points="76.0,174.2 128.9,158.3 181.9,155.3 234.8,147.5 287.8,147.5 340.7,142.9 393.7,142.2 446.6,137.9 499.6,137.9 552.5,135.3 605.5,135.0 658.4,134.3 711.4,125.4 764.3,125.4 817.3,125.4 870.2,123.4 923.2,123.4 976.1,123.3 1029.1,122.0 1082.0,122.0" fill="none" stroke="#8b5cf6" stroke-width="3"/>
<circle cx="76.0" cy="174.2" r="3" fill="#8b5cf6"/>
<circle cx="128.9" cy="158.3" r="3" fill="#8b5cf6"/>
<circle cx="181.9" cy="155.3" r="3" fill="#8b5cf6"/>
<circle cx="234.8" cy="147.5" r="3" fill="#8b5cf6"/>
<circle cx="287.8" cy="147.5" r="3" fill="#8b5cf6"/>
<circle cx="340.7" cy="142.9" r="3" fill="#8b5cf6"/>
<circle cx="393.7" cy="142.2" r="3" fill="#8b5cf6"/>
<circle cx="446.6" cy="137.9" r="3" fill="#8b5cf6"/>
<circle cx="499.6" cy="137.9" r="3" fill="#8b5cf6"/>
<circle cx="552.5" cy="135.3" r="3" fill="#8b5cf6"/>
<circle cx="605.5" cy="135.0" r="3" fill="#8b5cf6"/>
<circle cx="658.4" cy="134.3" r="3" fill="#8b5cf6"/>
<circle cx="711.4" cy="125.4" r="3" fill="#8b5cf6"/>
<circle cx="764.3" cy="125.4" r="3" fill="#8b5cf6"/>
<circle cx="817.3" cy="125.4" r="3" fill="#8b5cf6"/>
<circle cx="870.2" cy="123.4" r="3" fill="#8b5cf6"/>
<circle cx="923.2" cy="123.4" r="3" fill="#8b5cf6"/>
<circle cx="976.1" cy="123.3" r="3" fill="#8b5cf6"/>
<circle cx="1029.1" cy="122.0" r="3" fill="#8b5cf6"/>
<circle cx="1082.0" cy="122.0" r="3" fill="#8b5cf6"/>
<text class="tick" x="76.0" y="500" text-anchor="middle">1</text>
<text class="tick" x="287.8" y="500" text-anchor="middle">5</text>
<text class="tick" x="552.5" y="500" text-anchor="middle">10</text>
<text class="tick" x="817.3" y="500" text-anchor="middle">15</text>
<text class="tick" x="1082.0" y="500" text-anchor="middle">20</text>
<line x1="76" y1="522" x2="100" y2="522" stroke="#5b8def" stroke-width="3"/>
<text class="small" x="108" y="527">train_loss</text>
<line x1="274" y1="522" x2="298" y2="522" stroke="#d94848" stroke-width="3"/>
<text class="small" x="306" y="527">dev_loss</text>
<line x1="472" y1="522" x2="496" y2="522" stroke="#26a69a" stroke-width="3"/>
<text class="small" x="504" y="527">dev Recall@5</text>
<line x1="670" y1="522" x2="694" y2="522" stroke="#f59f00" stroke-width="3"/>
<text class="small" x="702" y="527">dev Full Support@5</text>
<line x1="868" y1="522" x2="892" y2="522" stroke="#8b5cf6" stroke-width="3"/>
<text class="small" x="900" y="527">best dev metric</text>
</svg>
