<svg xmlns="http://www.w3.org/2000/svg" width="1100" height="560" viewBox="0 0 1100 560" role="img">
<rect width="100%" height="100%" fill="#ffffff"/>
<style>
text { font-family: Arial, sans-serif; fill: #20242a; }
.title { font-size: 20px; font-weight: 700; }
.subtitle { font-size: 12px; fill: #5f6672; }
.axis { stroke: #c9ced6; stroke-width: 1; }
.grid { stroke: #edf0f4; stroke-width: 1; }
.tick { font-size: 12px; fill: #59616d; }
.label { font-size: 13px; fill: #303640; }
.small { font-size: 11px; fill: #59616d; }
.value { font-size: 11px; fill: #20242a; }
</style>
<text class="title" x="88" y="34">HotpotQA test connectivity metrics: Dense-FT builds the strongest evidence chains</text>
<text class="subtitle" x="88" y="54">Connected evidence and query-to-evidence reachability</text>
<line class="grid" x1="88" y1="482.0" x2="1064" y2="482.0"/>
<text class="tick" x="76" y="486.0" text-anchor="end">0.0</text>
<line class="grid" x1="88" y1="399.6" x2="1064" y2="399.6"/>
<text class="tick" x="76" y="403.6" text-anchor="end">0.2</text>
<line class="grid" x1="88" y1="317.2" x2="1064" y2="317.2"/>
<text class="tick" x="76" y="321.2" text-anchor="end">0.4</text>
<line class="grid" x1="88" y1="234.8" x2="1064" y2="234.8"/>
<text class="tick" x="76" y="238.8" text-anchor="end">0.6</text>
<line class="grid" x1="88" y1="152.4" x2="1064" y2="152.4"/>
<text class="tick" x="76" y="156.4" text-anchor="end">0.8</text>
<line class="grid" x1="88" y1="70.0" x2="1064" y2="70.0"/>
<text class="tick" x="76" y="74.0" text-anchor="end">1.0</text>
<line class="axis" x1="88" y1="70" x2="88" y2="482"/>
<line class="axis" x1="88" y1="482" x2="1064" y2="482"/>
<rect x="369.0" y="293.9" width="36.0" height="188.1" rx="3" fill="#3b6fb6" opacity="0.95"/>
<text class="value" x="387.0" y="287.9" text-anchor="middle">0.457</text>
<rect x="411.0" y="236.9" width="36.0" height="245.1" rx="3" fill="#8b5cf6" opacity="0.95"/>
<text class="value" x="429.0" y="230.9" text-anchor="middle">0.595</text>
<text class="label" x="408.0" y="526" text-anchor="middle">BM25</text>
<rect x="481.0" y="237.1" width="36.0" height="244.9" rx="3" fill="#3b6fb6" opacity="0.95"/>
<text class="value" x="499.0" y="231.1" text-anchor="middle">0.594</text>
<rect x="523.0" y="174.1" width="36.0" height="307.9" rx="3" fill="#8b5cf6" opacity="0.95"/>
<text class="value" x="541.0" y="168.1" text-anchor="middle">0.747</text>
<text class="label" x="520.0" y="526" text-anchor="middle">Dense</text>
<rect x="593.0" y="196.9" width="36.0" height="285.1" rx="3" fill="#3b6fb6" opacity="0.95"/>
<text class="value" x="611.0" y="190.9" text-anchor="middle">0.692</text>
<rect x="635.0" y="129.6" width="36.0" height="352.4" rx="3" fill="#8b5cf6" opacity="0.95"/>
<text class="value" x="653.0" y="123.6" text-anchor="middle">0.855</text>
<text class="label" x="632.0" y="526" text-anchor="middle">Dense-FT</text>
<rect x="705.0" y="230.7" width="36.0" height="251.3" rx="3" fill="#3b6fb6" opacity="0.95"/>
<text class="value" x="723.0" y="224.7" text-anchor="middle">0.610</text>
<rect x="747.0" y="170.9" width="36.0" height="311.1" rx="3" fill="#8b5cf6" opacity="0.95"/>
<text class="value" x="765.0" y="164.9" text-anchor="middle">0.755</text>
<text class="label" x="744.0" y="526" text-anchor="middle">Memory Stream</text>
<rect x="88" y="526" width="12" height="12" fill="#3b6fb6"/>
<text class="small" x="106" y="536">Connected Recall@10</text>
<rect x="278" y="526" width="12" height="12" fill="#8b5cf6"/>
<text class="small" x="296" y="536">Query-Evidence Connectivity@10</text>
</svg>