<svg xmlns="http://www.w3.org/2000/svg" width="1100" height="520" viewBox="0 0 1100 520" role="img">
<rect width="100%" height="100%" fill="#ffffff"/>
<style>
text { font-family: Arial, sans-serif; fill: #20242a; }
.title { font-size: 20px; font-weight: 700; }
.subtitle { font-size: 12px; fill: #5f6672; }
.axis { stroke: #c9ced6; stroke-width: 1; }
.grid { stroke: #edf0f4; stroke-width: 1; }
.tick { font-size: 12px; fill: #59616d; }
.label { font-size: 13px; fill: #303640; }
.small { font-size: 11px; fill: #59616d; }
.value { font-size: 11px; fill: #20242a; }
</style>
<text class="title" x="88" y="34">Memory Stream importance sweep: the curve is flat near zero and drops as importance grows</text>
<text class="subtitle" x="88" y="54">Selected point is 0.01; recency weight is effectively disabled because HotpotQA has no temporal signal</text>
<line class="grid" x1="88" y1="436.0" x2="1064" y2="436.0"/>
<text class="tick" x="76" y="440.0" text-anchor="end">0.0</text>
<line class="grid" x1="88" y1="362.8" x2="1064" y2="362.8"/>
<text class="tick" x="76" y="366.8" text-anchor="end">0.2</text>
<line class="grid" x1="88" y1="289.6" x2="1064" y2="289.6"/>
<text class="tick" x="76" y="293.6" text-anchor="end">0.4</text>
<line class="grid" x1="88" y1="216.4" x2="1064" y2="216.4"/>
<text class="tick" x="76" y="220.4" text-anchor="end">0.6</text>
<line class="grid" x1="88" y1="143.2" x2="1064" y2="143.2"/>
<text class="tick" x="76" y="147.2" text-anchor="end">0.8</text>
<line class="grid" x1="88" y1="70.0" x2="1064" y2="70.0"/>
<text class="tick" x="76" y="74.0" text-anchor="end">1.0</text>
<line class="axis" x1="88" y1="70" x2="88" y2="436"/>
<line class="axis" x1="88" y1="436" x2="1064" y2="436"/>
<line x1="250.7" y1="70" x2="250.7" y2="436" stroke="#9ca3af" stroke-dasharray="5 4" stroke-width="1"/>
<polyline fill="none" stroke="#2f8f5b" stroke-width="3" points="88.0,157.5 250.7,157.8 413.3,157.1 576.0,157.8 738.7,161.5 901.3,193.3 1064.0,258.5"/>
<circle cx="88.0" cy="157.5" r="4" fill="#2f8f5b"/>
<text class="value" x="88.0" y="149.5" text-anchor="middle">0.761</text>
<circle cx="250.7" cy="157.8" r="4" fill="#2f8f5b"/>
<text class="value" x="250.7" y="149.8" text-anchor="middle">0.760</text>
<circle cx="413.3" cy="157.1" r="4" fill="#2f8f5b"/>
<text class="value" x="413.3" y="149.1" text-anchor="middle">0.762</text>
<circle cx="576.0" cy="157.8" r="4" fill="#2f8f5b"/>
<text class="value" x="576.0" y="149.8" text-anchor="middle">0.760</text>
<circle cx="738.7" cy="161.5" r="4" fill="#2f8f5b"/>
<text class="value" x="738.7" y="153.5" text-anchor="middle">0.750</text>
<circle cx="901.3" cy="193.3" r="4" fill="#2f8f5b"/>
<text class="value" x="901.3" y="185.3" text-anchor="middle">0.663</text>
<circle cx="1064.0" cy="258.5" r="4" fill="#2f8f5b"/>
<text class="value" x="1064.0" y="250.5" text-anchor="middle">0.485</text>
<polyline fill="none" stroke="#8b5cf6" stroke-width="3" points="88.0,123.9 250.7,123.7 413.3,124.7 576.0,127.7 738.7,132.0 901.3,155.0 1064.0,195.5"/>
<circle cx="88.0" cy="123.9" r="4" fill="#8b5cf6"/>
<text class="value" x="88.0" y="115.9" text-anchor="middle">0.853</text>
<circle cx="250.7" cy="123.7" r="4" fill="#8b5cf6"/>
<text class="value" x="250.7" y="115.7" text-anchor="middle">0.853</text>
<circle cx="413.3" cy="124.7" r="4" fill="#8b5cf6"/>
<text class="value" x="413.3" y="116.7" text-anchor="middle">0.850</text>
<circle cx="576.0" cy="127.7" r="4" fill="#8b5cf6"/>
<text class="value" x="576.0" y="119.7" text-anchor="middle">0.842</text>
<circle cx="738.7" cy="132.0" r="4" fill="#8b5cf6"/>
<text class="value" x="738.7" y="124.0" text-anchor="middle">0.831</text>
<circle cx="901.3" cy="155.0" r="4" fill="#8b5cf6"/>
<text class="value" x="901.3" y="147.0" text-anchor="middle">0.768</text>
<circle cx="1064.0" cy="195.5" r="4" fill="#8b5cf6"/>
<text class="value" x="1064.0" y="187.5" text-anchor="middle">0.657</text>
<text class="label" x="88.0" y="484" text-anchor="middle">0.00</text>
<text class="label" x="250.7" y="484" text-anchor="middle">0.01</text>
<text class="label" x="413.3" y="484" text-anchor="middle">0.05</text>
<text class="label" x="576.0" y="484" text-anchor="middle">0.10</text>
<text class="label" x="738.7" y="484" text-anchor="middle">0.20</text>
<text class="label" x="901.3" y="484" text-anchor="middle">0.50</text>
<text class="label" x="1064.0" y="484" text-anchor="middle">1.00</text>
<rect x="88" y="490" width="12" height="12" fill="#2f8f5b"/>
<text class="small" x="106" y="500">Full Support@10</text>
<rect x="258" y="490" width="12" height="12" fill="#8b5cf6"/>
<text class="small" x="276" y="500">MRR</text>
</svg>