<svg xmlns="http://www.w3.org/2000/svg" width="1080" height="560" viewBox="0 0 1080 560">
<rect width="100%" height="100%" fill="#ffffff"/>
<text x="90" y="34" font-family="Arial, sans-serif" font-size="22" font-weight="700" fill="#111827">Evidence F1</text>
<line x1="90" x2="1050" y1="410.0" y2="410.0" stroke="#E5E7EB"/>
<text x="78" y="414.0" text-anchor="end" font-family="Arial, sans-serif" font-size="12" fill="#4B5563">0.00</text>
<line x1="90" x2="1050" y1="321.2" y2="321.2" stroke="#E5E7EB"/>
<text x="78" y="325.2" text-anchor="end" font-family="Arial, sans-serif" font-size="12" fill="#4B5563">0.17</text>
<line x1="90" x2="1050" y1="232.5" y2="232.5" stroke="#E5E7EB"/>
<text x="78" y="236.5" text-anchor="end" font-family="Arial, sans-serif" font-size="12" fill="#4B5563">0.35</text>
<line x1="90" x2="1050" y1="143.8" y2="143.8" stroke="#E5E7EB"/>
<text x="78" y="147.8" text-anchor="end" font-family="Arial, sans-serif" font-size="12" fill="#4B5563">0.52</text>
<line x1="90" x2="1050" y1="55.0" y2="55.0" stroke="#E5E7EB"/>
<text x="78" y="59.0" text-anchor="end" font-family="Arial, sans-serif" font-size="12" fill="#4B5563">0.70</text>
<text x="330.0" y="460" text-anchor="middle" font-family="Arial, sans-serif" font-size="13" fill="#111827">Evidence F1@5</text>
<rect x="147.6" y="222.7" width="49.5" height="187.3" fill="#6B7280" rx="2"/>
<text x="172.4" y="218.7" text-anchor="middle" font-family="Arial, sans-serif" font-size="9" fill="#374151" transform="rotate(-90 172.4 218.7)">0.369</text>
<rect x="200.1" y="205.3" width="49.5" height="204.7" fill="#8B5CF6" rx="2"/>
<text x="224.9" y="201.3" text-anchor="middle" font-family="Arial, sans-serif" font-size="9" fill="#374151" transform="rotate(-90 224.9 201.3)">0.404</text>
<rect x="252.7" y="179.0" width="49.5" height="231.0" fill="#2563EB" rx="2"/>
<text x="277.5" y="175.0" text-anchor="middle" font-family="Arial, sans-serif" font-size="9" fill="#374151" transform="rotate(-90 277.5 175.0)">0.456</text>
<rect x="305.2" y="171.3" width="49.5" height="238.7" fill="#14B8A6" rx="2"/>
<text x="330.0" y="167.3" text-anchor="middle" font-family="Arial, sans-serif" font-size="9" fill="#374151" transform="rotate(-90 330.0 167.3)">0.471</text>
<rect x="357.8" y="135.4" width="49.5" height="274.6" fill="#F97316" rx="2"/>
<text x="382.5" y="131.4" text-anchor="middle" font-family="Arial, sans-serif" font-size="9" fill="#374151" transform="rotate(-90 382.5 131.4)">0.541</text>
<rect x="410.3" y="137.7" width="49.5" height="272.3" fill="#DB2777" rx="2"/>
<text x="435.1" y="133.7" text-anchor="middle" font-family="Arial, sans-serif" font-size="9" fill="#374151" transform="rotate(-90 435.1 133.7)">0.537</text>
<rect x="462.9" y="124.7" width="49.5" height="285.3" fill="#DC2626" rx="2"/>
<text x="487.6" y="120.7" text-anchor="middle" font-family="Arial, sans-serif" font-size="9" fill="#374151" transform="rotate(-90 487.6 120.7)">0.563</text>
<text x="810.0" y="460" text-anchor="middle" font-family="Arial, sans-serif" font-size="13" fill="#111827">Evidence F1@10</text>
<rect x="627.6" y="264.3" width="49.5" height="145.7" fill="#6B7280" rx="2"/>
<text x="652.4" y="260.3" text-anchor="middle" font-family="Arial, sans-serif" font-size="9" fill="#374151" transform="rotate(-90 652.4 260.3)">0.287</text>
<rect x="680.1" y="250.3" width="49.5" height="159.7" fill="#8B5CF6" rx="2"/>
<text x="704.9" y="246.3" text-anchor="middle" font-family="Arial, sans-serif" font-size="9" fill="#374151" transform="rotate(-90 704.9 246.3)">0.315</text>
<rect x="732.7" y="234.6" width="49.5" height="175.4" fill="#2563EB" rx="2"/>
<text x="757.5" y="230.6" text-anchor="middle" font-family="Arial, sans-serif" font-size="9" fill="#374151" transform="rotate(-90 757.5 230.6)">0.346</text>
<rect x="785.2" y="230.2" width="49.5" height="179.8" fill="#14B8A6" rx="2"/>
<text x="810.0" y="226.2" text-anchor="middle" font-family="Arial, sans-serif" font-size="9" fill="#374151" transform="rotate(-90 810.0 226.2)">0.355</text>
<rect x="837.8" y="215.0" width="49.5" height="195.0" fill="#F97316" rx="2"/>
<text x="862.5" y="211.0" text-anchor="middle" font-family="Arial, sans-serif" font-size="9" fill="#374151" transform="rotate(-90 862.5 211.0)">0.384</text>
<rect x="890.3" y="215.6" width="49.5" height="194.4" fill="#DB2777" rx="2"/>
<text x="915.1" y="211.6" text-anchor="middle" font-family="Arial, sans-serif" font-size="9" fill="#374151" transform="rotate(-90 915.1 211.6)">0.383</text>
<rect x="942.9" y="213.3" width="49.5" height="196.7" fill="#DC2626" rx="2"/>
<text x="967.6" y="209.3" text-anchor="middle" font-family="Arial, sans-serif" font-size="9" fill="#374151" transform="rotate(-90 967.6 209.3)">0.388</text>
<rect x="90" y="490" width="14" height="14" fill="#6B7280" rx="2"/>
<text x="112" y="502" font-family="Arial, sans-serif" font-size="13" fill="#111827">BM25</text>
<rect x="330" y="490" width="14" height="14" fill="#8B5CF6" rx="2"/>
<text x="352" y="502" font-family="Arial, sans-serif" font-size="13" fill="#111827">BM25 + Graph</text>
<rect x="570" y="490" width="14" height="14" fill="#2563EB" rx="2"/>
<text x="592" y="502" font-family="Arial, sans-serif" font-size="13" fill="#111827">Dense</text>
<rect x="810" y="490" width="14" height="14" fill="#14B8A6" rx="2"/>
<text x="832" y="502" font-family="Arial, sans-serif" font-size="13" fill="#111827">Dense + Graph</text>
<rect x="90" y="516" width="14" height="14" fill="#F97316" rx="2"/>
<text x="112" y="528" font-family="Arial, sans-serif" font-size="13" fill="#111827">Dense-FT</text>
<rect x="330" y="516" width="14" height="14" fill="#DB2777" rx="2"/>
<text x="352" y="528" font-family="Arial, sans-serif" font-size="13" fill="#111827">Dense-RGCN</text>
<rect x="570" y="516" width="14" height="14" fill="#DC2626" rx="2"/>
<text x="592" y="528" font-family="Arial, sans-serif" font-size="13" fill="#111827">Dense-FT-RGCN</text>
</svg>