<svg xmlns="http://www.w3.org/2000/svg" width="1080" height="560" viewBox="0 0 1080 560">
<rect width="100%" height="100%" fill="#ffffff"/>
<text x="90" y="34" font-family="Arial, sans-serif" font-size="22" font-weight="700" fill="#111827">HotpotQA — Structural Connectivity</text>
<line x1="90" x2="1050" y1="410.0" y2="410.0" stroke="#E5E7EB"/>
<text x="78" y="414.0" text-anchor="end" font-family="Arial, sans-serif" font-size="12" fill="#4B5563">0.00</text>
<line x1="90" x2="1050" y1="325.0" y2="325.0" stroke="#E5E7EB"/>
<text x="78" y="329.0" text-anchor="end" font-family="Arial, sans-serif" font-size="12" fill="#4B5563">0.25</text>
<line x1="90" x2="1050" y1="240.0" y2="240.0" stroke="#E5E7EB"/>
<text x="78" y="244.0" text-anchor="end" font-family="Arial, sans-serif" font-size="12" fill="#4B5563">0.50</text>
<line x1="90" x2="1050" y1="155.0" y2="155.0" stroke="#E5E7EB"/>
<text x="78" y="159.0" text-anchor="end" font-family="Arial, sans-serif" font-size="12" fill="#4B5563">0.75</text>
<line x1="90" x2="1050" y1="70.0" y2="70.0" stroke="#E5E7EB"/>
<text x="78" y="74.0" text-anchor="end" font-family="Arial, sans-serif" font-size="12" fill="#4B5563">1.00</text>
<text x="250.0" y="460" text-anchor="middle" font-family="Arial, sans-serif" font-size="13" fill="#111827">Conn.Ev.Recall@5</text>
<rect x="208.8" y="281.7" width="17.6" height="128.3" fill="#2563EB" rx="2"/>
<text x="217.6" y="276.7" text-anchor="middle" font-family="Arial, sans-serif" font-size="10" fill="#374151">0.377</text>
<rect x="230.4" y="241.1" width="17.6" height="168.9" fill="#F97316" rx="2"/>
<text x="239.2" y="236.1" text-anchor="middle" font-family="Arial, sans-serif" font-size="10" fill="#374151">0.497</text>
<rect x="252.0" y="215.8" width="17.6" height="194.2" fill="#14B8A6" rx="2"/>
<text x="260.8" y="210.8" text-anchor="middle" font-family="Arial, sans-serif" font-size="10" fill="#374151">0.571</text>
<rect x="273.6" y="206.6" width="17.6" height="203.4" fill="#DC2626" rx="2"/>
<text x="282.4" y="201.6" text-anchor="middle" font-family="Arial, sans-serif" font-size="10" fill="#374151">0.598</text>
<text x="570.0" y="460" text-anchor="middle" font-family="Arial, sans-serif" font-size="13" fill="#111827">Conn.Ev.Recall@10</text>
<rect x="528.8" y="207.9" width="17.6" height="202.1" fill="#2563EB" rx="2"/>
<text x="537.6" y="202.9" text-anchor="middle" font-family="Arial, sans-serif" font-size="10" fill="#374151">0.594</text>
<rect x="550.4" y="174.9" width="17.6" height="235.1" fill="#F97316" rx="2"/>
<text x="559.2" y="169.9" text-anchor="middle" font-family="Arial, sans-serif" font-size="10" fill="#374151">0.691</text>
<rect x="572.0" y="160.3" width="17.6" height="249.7" fill="#14B8A6" rx="2"/>
<text x="580.8" y="155.3" text-anchor="middle" font-family="Arial, sans-serif" font-size="10" fill="#374151">0.734</text>
<rect x="593.6" y="154.2" width="17.6" height="255.8" fill="#DC2626" rx="2"/>
<text x="602.4" y="149.2" text-anchor="middle" font-family="Arial, sans-serif" font-size="10" fill="#374151">0.752</text>
<text x="890.0" y="460" text-anchor="middle" font-family="Arial, sans-serif" font-size="13" fill="#111827">Q-E Connectivity@10</text>
<rect x="848.8" y="156.0" width="17.6" height="254.0" fill="#2563EB" rx="2"/>
<text x="857.6" y="151.0" text-anchor="middle" font-family="Arial, sans-serif" font-size="10" fill="#374151">0.747</text>
<rect x="870.4" y="119.4" width="17.6" height="290.6" fill="#F97316" rx="2"/>
<text x="879.2" y="114.4" text-anchor="middle" font-family="Arial, sans-serif" font-size="10" fill="#374151">0.855</text>
<rect x="892.0" y="105.4" width="17.6" height="304.6" fill="#14B8A6" rx="2"/>
<text x="900.8" y="100.4" text-anchor="middle" font-family="Arial, sans-serif" font-size="10" fill="#374151">0.896</text>
<rect x="913.6" y="99.4" width="17.6" height="310.6" fill="#DC2626" rx="2"/>
<text x="922.4" y="94.4" text-anchor="middle" font-family="Arial, sans-serif" font-size="10" fill="#374151">0.913</text>
<rect x="90" y="490" width="14" height="14" fill="#2563EB" rx="2"/>
<text x="112" y="502" font-family="Arial, sans-serif" font-size="13" fill="#111827">Dense</text>
<rect x="340" y="490" width="14" height="14" fill="#F97316" rx="2"/>
<text x="362" y="502" font-family="Arial, sans-serif" font-size="13" fill="#111827">Dense-FT</text>
<rect x="590" y="490" width="14" height="14" fill="#14B8A6" rx="2"/>
<text x="612" y="502" font-family="Arial, sans-serif" font-size="13" fill="#111827">Dense-RGCN</text>
<rect x="840" y="490" width="14" height="14" fill="#DC2626" rx="2"/>
<text x="862" y="502" font-family="Arial, sans-serif" font-size="13" fill="#111827">Dense-FT-RGCN</text>
</svg>