<svg xmlns="http://www.w3.org/2000/svg" width="1080" height="560" viewBox="0 0 1080 560">
<rect width="100%" height="100%" fill="#ffffff"/>
<text x="90" y="34" font-family="Arial, sans-serif" font-size="22" font-weight="700" fill="#111827">HotpotQA — Main Retrieval Metrics</text>
<line x1="90" x2="1050" y1="410.0" y2="410.0" stroke="#E5E7EB"/>
<text x="78" y="414.0" text-anchor="end" font-family="Arial, sans-serif" font-size="12" fill="#4B5563">0.00</text>
<line x1="90" x2="1050" y1="325.0" y2="325.0" stroke="#E5E7EB"/>
<text x="78" y="329.0" text-anchor="end" font-family="Arial, sans-serif" font-size="12" fill="#4B5563">0.25</text>
<line x1="90" x2="1050" y1="240.0" y2="240.0" stroke="#E5E7EB"/>
<text x="78" y="244.0" text-anchor="end" font-family="Arial, sans-serif" font-size="12" fill="#4B5563">0.50</text>
<line x1="90" x2="1050" y1="155.0" y2="155.0" stroke="#E5E7EB"/>
<text x="78" y="159.0" text-anchor="end" font-family="Arial, sans-serif" font-size="12" fill="#4B5563">0.75</text>
<line x1="90" x2="1050" y1="70.0" y2="70.0" stroke="#E5E7EB"/>
<text x="78" y="74.0" text-anchor="end" font-family="Arial, sans-serif" font-size="12" fill="#4B5563">1.00</text>
<text x="170.0" y="460" text-anchor="middle" font-family="Arial, sans-serif" font-size="13" fill="#111827">Recall@2</text>
<rect x="128.8" y="224.8" width="17.6" height="185.2" fill="#2563EB" rx="2"/>
<rect x="150.4" y="201.1" width="17.6" height="208.9" fill="#F97316" rx="2"/>
<rect x="172.0" y="183.4" width="17.6" height="226.6" fill="#14B8A6" rx="2"/>
<rect x="193.6" y="173.3" width="17.6" height="236.7" fill="#DC2626" rx="2"/>
<text x="202.4" y="168.3" text-anchor="middle" font-family="Arial, sans-serif" font-size="10" fill="#374151">0.696</text>
<text x="330.0" y="460" text-anchor="middle" font-family="Arial, sans-serif" font-size="13" fill="#111827">Recall@5</text>
<rect x="288.8" y="148.3" width="17.6" height="261.7" fill="#2563EB" rx="2"/>
<rect x="310.4" y="119.4" width="17.6" height="290.6" fill="#F97316" rx="2"/>
<rect x="332.0" y="108.4" width="17.6" height="301.6" fill="#14B8A6" rx="2"/>
<rect x="353.6" y="101.0" width="17.6" height="309.0" fill="#DC2626" rx="2"/>
<text x="362.4" y="96.0" text-anchor="middle" font-family="Arial, sans-serif" font-size="10" fill="#374151">0.909</text>
<text x="490.0" y="460" text-anchor="middle" font-family="Arial, sans-serif" font-size="13" fill="#111827">Recall@10</text>
<rect x="448.8" y="107.9" width="17.6" height="302.1" fill="#2563EB" rx="2"/>
<rect x="470.4" y="89.2" width="17.6" height="320.8" fill="#F97316" rx="2"/>
<rect x="492.0" y="83.6" width="17.6" height="326.4" fill="#14B8A6" rx="2"/>
<rect x="513.6" y="80.6" width="17.6" height="329.4" fill="#DC2626" rx="2"/>
<text x="522.4" y="75.6" text-anchor="middle" font-family="Arial, sans-serif" font-size="10" fill="#374151">0.969</text>
<text x="650.0" y="460" text-anchor="middle" font-family="Arial, sans-serif" font-size="13" fill="#111827">Full Support@5</text>
<rect x="608.8" y="229.1" width="17.6" height="180.9" fill="#2563EB" rx="2"/>
<rect x="630.4" y="175.5" width="17.6" height="234.5" fill="#F97316" rx="2"/>
<rect x="652.0" y="151.6" width="17.6" height="258.4" fill="#14B8A6" rx="2"/>
<rect x="673.6" y="138.1" width="17.6" height="271.9" fill="#DC2626" rx="2"/>
<text x="682.4" y="133.1" text-anchor="middle" font-family="Arial, sans-serif" font-size="10" fill="#374151">0.800</text>
<text x="810.0" y="460" text-anchor="middle" font-family="Arial, sans-serif" font-size="13" fill="#111827">Full Support@10</text>
<rect x="768.8" y="153.7" width="17.6" height="256.3" fill="#2563EB" rx="2"/>
<rect x="790.4" y="115.1" width="17.6" height="294.9" fill="#F97316" rx="2"/>
<rect x="812.0" y="100.9" width="17.6" height="309.1" fill="#14B8A6" rx="2"/>
<rect x="833.6" y="94.5" width="17.6" height="315.5" fill="#DC2626" rx="2"/>
<text x="842.4" y="89.5" text-anchor="middle" font-family="Arial, sans-serif" font-size="10" fill="#374151">0.928</text>
<text x="970.0" y="460" text-anchor="middle" font-family="Arial, sans-serif" font-size="13" fill="#111827">MRR</text>
<rect x="928.8" y="120.0" width="17.6" height="290.0" fill="#2563EB" rx="2"/>
<rect x="950.4" y="106.3" width="17.6" height="303.7" fill="#F97316" rx="2"/>
<rect x="972.0" y="98.7" width="17.6" height="311.3" fill="#14B8A6" rx="2"/>
<rect x="993.6" y="93.6" width="17.6" height="316.4" fill="#DC2626" rx="2"/>
<text x="1002.4" y="88.6" text-anchor="middle" font-family="Arial, sans-serif" font-size="10" fill="#374151">0.930</text>
<rect x="90" y="490" width="14" height="14" fill="#2563EB" rx="2"/>
<text x="112" y="502" font-family="Arial, sans-serif" font-size="13" fill="#111827">Dense</text>
<rect x="340" y="490" width="14" height="14" fill="#F97316" rx="2"/>
<text x="362" y="502" font-family="Arial, sans-serif" font-size="13" fill="#111827">Dense-FT</text>
<rect x="590" y="490" width="14" height="14" fill="#14B8A6" rx="2"/>
<text x="612" y="502" font-family="Arial, sans-serif" font-size="13" fill="#111827">Dense-RGCN</text>
<rect x="840" y="490" width="14" height="14" fill="#DC2626" rx="2"/>
<text x="862" y="502" font-family="Arial, sans-serif" font-size="13" fill="#111827">Dense-FT-RGCN</text>
</svg>