<svg xmlns="http://www.w3.org/2000/svg" width="1080" height="560" viewBox="0 0 1080 560">
<rect width="100%" height="100%" fill="#ffffff"/>
<text x="90" y="34" font-family="Arial, sans-serif" font-size="22" font-weight="700" fill="#111827">2WikiMultiHopQA — Path / Edge Recovery (RGCN only)</text>
<line x1="90" x2="1050" y1="410.0" y2="410.0" stroke="#E5E7EB"/>
<text x="78" y="414.0" text-anchor="end" font-family="Arial, sans-serif" font-size="12" fill="#4B5563">0.00</text>
<line x1="90" x2="1050" y1="325.0" y2="325.0" stroke="#E5E7EB"/>
<text x="78" y="329.0" text-anchor="end" font-family="Arial, sans-serif" font-size="12" fill="#4B5563">0.25</text>
<line x1="90" x2="1050" y1="240.0" y2="240.0" stroke="#E5E7EB"/>
<text x="78" y="244.0" text-anchor="end" font-family="Arial, sans-serif" font-size="12" fill="#4B5563">0.50</text>
<line x1="90" x2="1050" y1="155.0" y2="155.0" stroke="#E5E7EB"/>
<text x="78" y="159.0" text-anchor="end" font-family="Arial, sans-serif" font-size="12" fill="#4B5563">0.75</text>
<line x1="90" x2="1050" y1="70.0" y2="70.0" stroke="#E5E7EB"/>
<text x="78" y="74.0" text-anchor="end" font-family="Arial, sans-serif" font-size="12" fill="#4B5563">1.00</text>
<text x="330.0" y="460" text-anchor="middle" font-family="Arial, sans-serif" font-size="13" fill="#111827">Path Recall@10</text>
<rect x="288.8" y="410.0" width="17.6" height="0.0" fill="#2563EB" rx="2"/>
<text x="297.6" y="405.0" text-anchor="middle" font-family="Arial, sans-serif" font-size="10" fill="#374151">0.000</text>
<rect x="310.4" y="410.0" width="17.6" height="0.0" fill="#F97316" rx="2"/>
<text x="319.2" y="405.0" text-anchor="middle" font-family="Arial, sans-serif" font-size="10" fill="#374151">0.000</text>
<rect x="332.0" y="105.9" width="17.6" height="304.1" fill="#14B8A6" rx="2"/>
<text x="340.8" y="100.9" text-anchor="middle" font-family="Arial, sans-serif" font-size="10" fill="#374151">0.894</text>
<rect x="353.6" y="90.4" width="17.6" height="319.6" fill="#DC2626" rx="2"/>
<text x="362.4" y="85.4" text-anchor="middle" font-family="Arial, sans-serif" font-size="10" fill="#374151">0.940</text>
<text x="810.0" y="460" text-anchor="middle" font-family="Arial, sans-serif" font-size="13" fill="#111827">Edge Recall@10</text>
<rect x="768.8" y="410.0" width="17.6" height="0.0" fill="#2563EB" rx="2"/>
<text x="777.6" y="405.0" text-anchor="middle" font-family="Arial, sans-serif" font-size="10" fill="#374151">0.000</text>
<rect x="790.4" y="410.0" width="17.6" height="0.0" fill="#F97316" rx="2"/>
<text x="799.2" y="405.0" text-anchor="middle" font-family="Arial, sans-serif" font-size="10" fill="#374151">0.000</text>
<rect x="812.0" y="118.9" width="17.6" height="291.1" fill="#14B8A6" rx="2"/>
<text x="820.8" y="113.9" text-anchor="middle" font-family="Arial, sans-serif" font-size="10" fill="#374151">0.856</text>
<rect x="833.6" y="107.7" width="17.6" height="302.3" fill="#DC2626" rx="2"/>
<text x="842.4" y="102.7" text-anchor="middle" font-family="Arial, sans-serif" font-size="10" fill="#374151">0.889</text>
<rect x="90" y="490" width="14" height="14" fill="#2563EB" rx="2"/>
<text x="112" y="502" font-family="Arial, sans-serif" font-size="13" fill="#111827">Dense</text>
<rect x="340" y="490" width="14" height="14" fill="#F97316" rx="2"/>
<text x="362" y="502" font-family="Arial, sans-serif" font-size="13" fill="#111827">Dense-FT</text>
<rect x="590" y="490" width="14" height="14" fill="#14B8A6" rx="2"/>
<text x="612" y="502" font-family="Arial, sans-serif" font-size="13" fill="#111827">Dense-RGCN</text>
<rect x="840" y="490" width="14" height="14" fill="#DC2626" rx="2"/>
<text x="862" y="502" font-family="Arial, sans-serif" font-size="13" fill="#111827">Dense-FT-RGCN</text>
</svg>