<svg xmlns="http://www.w3.org/2000/svg" width="1080" height="560" viewBox="0 0 1080 560">
<rect width="100%" height="100%" fill="#ffffff"/>
<text x="90" y="34" font-family="Arial, sans-serif" font-size="22" font-weight="700" fill="#111827">2WikiMultiHopQA — Retrieval Latency</text>
<line x1="90" x2="1050" y1="410.0" y2="410.0" stroke="#E5E7EB"/>
<text x="78" y="414.0" text-anchor="end" font-family="Arial, sans-serif" font-size="12" fill="#4B5563">0.00</text>
<line x1="90" x2="1050" y1="325.0" y2="325.0" stroke="#E5E7EB"/>
<text x="78" y="329.0" text-anchor="end" font-family="Arial, sans-serif" font-size="12" fill="#4B5563">15.00</text>
<line x1="90" x2="1050" y1="240.0" y2="240.0" stroke="#E5E7EB"/>
<text x="78" y="244.0" text-anchor="end" font-family="Arial, sans-serif" font-size="12" fill="#4B5563">30.00</text>
<line x1="90" x2="1050" y1="155.0" y2="155.0" stroke="#E5E7EB"/>
<text x="78" y="159.0" text-anchor="end" font-family="Arial, sans-serif" font-size="12" fill="#4B5563">45.00</text>
<line x1="90" x2="1050" y1="70.0" y2="70.0" stroke="#E5E7EB"/>
<text x="78" y="74.0" text-anchor="end" font-family="Arial, sans-serif" font-size="12" fill="#4B5563">60.00</text>
<text x="570.0" y="460" text-anchor="middle" font-family="Arial, sans-serif" font-size="13" fill="#111827">Retrieval Latency / Query (ms)</text>
<rect x="528.8" y="284.3" width="17.6" height="125.7" fill="#2563EB" rx="2"/>
<text x="537.6" y="279.3" text-anchor="middle" font-family="Arial, sans-serif" font-size="10" fill="#374151">22.2</text>
<rect x="550.4" y="286.2" width="17.6" height="123.8" fill="#F97316" rx="2"/>
<text x="559.2" y="281.2" text-anchor="middle" font-family="Arial, sans-serif" font-size="10" fill="#374151">21.8</text>
<rect x="572.0" y="213.2" width="17.6" height="196.8" fill="#14B8A6" rx="2"/>
<text x="580.8" y="208.2" text-anchor="middle" font-family="Arial, sans-serif" font-size="10" fill="#374151">34.7</text>
<rect x="593.6" y="196.4" width="17.6" height="213.6" fill="#DC2626" rx="2"/>
<text x="602.4" y="191.4" text-anchor="middle" font-family="Arial, sans-serif" font-size="10" fill="#374151">37.7</text>
<rect x="90" y="490" width="14" height="14" fill="#2563EB" rx="2"/>
<text x="112" y="502" font-family="Arial, sans-serif" font-size="13" fill="#111827">Dense</text>
<rect x="340" y="490" width="14" height="14" fill="#F97316" rx="2"/>
<text x="362" y="502" font-family="Arial, sans-serif" font-size="13" fill="#111827">Dense-FT</text>
<rect x="590" y="490" width="14" height="14" fill="#14B8A6" rx="2"/>
<text x="612" y="502" font-family="Arial, sans-serif" font-size="13" fill="#111827">Dense-RGCN</text>
<rect x="840" y="490" width="14" height="14" fill="#DC2626" rx="2"/>
<text x="862" y="502" font-family="Arial, sans-serif" font-size="13" fill="#111827">Dense-FT-RGCN</text>
</svg>