<svg xmlns="http://www.w3.org/2000/svg" width="1080" height="560" viewBox="0 0 1080 560">
<rect width="100%" height="100%" fill="#ffffff"/>
<text x="90" y="34" font-family="Arial, sans-serif" font-size="22" font-weight="700" fill="#111827">2WikiMultiHopQA — Structural Connectivity</text>
<line x1="90" x2="1050" y1="410.0" y2="410.0" stroke="#E5E7EB"/>
<text x="78" y="414.0" text-anchor="end" font-family="Arial, sans-serif" font-size="12" fill="#4B5563">0.00</text>
<line x1="90" x2="1050" y1="325.0" y2="325.0" stroke="#E5E7EB"/>
<text x="78" y="329.0" text-anchor="end" font-family="Arial, sans-serif" font-size="12" fill="#4B5563">0.25</text>
<line x1="90" x2="1050" y1="240.0" y2="240.0" stroke="#E5E7EB"/>
<text x="78" y="244.0" text-anchor="end" font-family="Arial, sans-serif" font-size="12" fill="#4B5563">0.50</text>
<line x1="90" x2="1050" y1="155.0" y2="155.0" stroke="#E5E7EB"/>
<text x="78" y="159.0" text-anchor="end" font-family="Arial, sans-serif" font-size="12" fill="#4B5563">0.75</text>
<line x1="90" x2="1050" y1="70.0" y2="70.0" stroke="#E5E7EB"/>
<text x="78" y="74.0" text-anchor="end" font-family="Arial, sans-serif" font-size="12" fill="#4B5563">1.00</text>
<text x="250.0" y="460" text-anchor="middle" font-family="Arial, sans-serif" font-size="13" fill="#111827">Conn.Ev.Recall@5</text>
<rect x="208.8" y="341.7" width="17.6" height="68.3" fill="#2563EB" rx="2"/>
<text x="217.6" y="336.7" text-anchor="middle" font-family="Arial, sans-serif" font-size="10" fill="#374151">0.201</text>
<rect x="230.4" y="221.2" width="17.6" height="188.8" fill="#F97316" rx="2"/>
<text x="239.2" y="216.2" text-anchor="middle" font-family="Arial, sans-serif" font-size="10" fill="#374151">0.555</text>
<rect x="252.0" y="214.4" width="17.6" height="195.6" fill="#14B8A6" rx="2"/>
<text x="260.8" y="209.4" text-anchor="middle" font-family="Arial, sans-serif" font-size="10" fill="#374151">0.575</text>
<rect x="273.6" y="194.4" width="17.6" height="215.6" fill="#DC2626" rx="2"/>
<text x="282.4" y="189.4" text-anchor="middle" font-family="Arial, sans-serif" font-size="10" fill="#374151">0.634</text>
<text x="570.0" y="460" text-anchor="middle" font-family="Arial, sans-serif" font-size="13" fill="#111827">Conn.Ev.Recall@10</text>
<rect x="528.8" y="275.1" width="17.6" height="134.9" fill="#2563EB" rx="2"/>
<text x="537.6" y="270.1" text-anchor="middle" font-family="Arial, sans-serif" font-size="10" fill="#374151">0.397</text>
<rect x="550.4" y="163.6" width="17.6" height="246.4" fill="#F97316" rx="2"/>
<text x="559.2" y="158.6" text-anchor="middle" font-family="Arial, sans-serif" font-size="10" fill="#374151">0.725</text>
<rect x="572.0" y="173.9" width="17.6" height="236.1" fill="#14B8A6" rx="2"/>
<text x="580.8" y="168.9" text-anchor="middle" font-family="Arial, sans-serif" font-size="10" fill="#374151">0.694</text>
<rect x="593.6" y="161.7" width="17.6" height="248.3" fill="#DC2626" rx="2"/>
<text x="602.4" y="156.7" text-anchor="middle" font-family="Arial, sans-serif" font-size="10" fill="#374151">0.730</text>
<text x="890.0" y="460" text-anchor="middle" font-family="Arial, sans-serif" font-size="13" fill="#111827">Q-E Connectivity@10</text>
<rect x="848.8" y="221.8" width="17.6" height="188.2" fill="#2563EB" rx="2"/>
<text x="857.6" y="216.8" text-anchor="middle" font-family="Arial, sans-serif" font-size="10" fill="#374151">0.553</text>
<rect x="870.4" y="89.3" width="17.6" height="320.7" fill="#F97316" rx="2"/>
<text x="879.2" y="84.3" text-anchor="middle" font-family="Arial, sans-serif" font-size="10" fill="#374151">0.943</text>
<rect x="892.0" y="92.9" width="17.6" height="317.1" fill="#14B8A6" rx="2"/>
<text x="900.8" y="87.9" text-anchor="middle" font-family="Arial, sans-serif" font-size="10" fill="#374151">0.932</text>
<rect x="913.6" y="82.7" width="17.6" height="327.3" fill="#DC2626" rx="2"/>
<text x="922.4" y="77.7" text-anchor="middle" font-family="Arial, sans-serif" font-size="10" fill="#374151">0.963</text>
<rect x="90" y="490" width="14" height="14" fill="#2563EB" rx="2"/>
<text x="112" y="502" font-family="Arial, sans-serif" font-size="13" fill="#111827">Dense</text>
<rect x="340" y="490" width="14" height="14" fill="#F97316" rx="2"/>
<text x="362" y="502" font-family="Arial, sans-serif" font-size="13" fill="#111827">Dense-FT</text>
<rect x="590" y="490" width="14" height="14" fill="#14B8A6" rx="2"/>
<text x="612" y="502" font-family="Arial, sans-serif" font-size="13" fill="#111827">Dense-RGCN</text>
<rect x="840" y="490" width="14" height="14" fill="#DC2626" rx="2"/>
<text x="862" y="502" font-family="Arial, sans-serif" font-size="13" fill="#111827">Dense-FT-RGCN</text>
</svg>