<svg xmlns="http://www.w3.org/2000/svg" width="1080" height="560" viewBox="0 0 1080 560">
<rect width="100%" height="100%" fill="#ffffff"/>
<text x="90" y="34" font-family="Arial, sans-serif" font-size="22" font-weight="700" fill="#111827">2WikiMultiHopQA — Main Retrieval Metrics</text>
<line x1="90" x2="1050" y1="410.0" y2="410.0" stroke="#E5E7EB"/>
<text x="78" y="414.0" text-anchor="end" font-family="Arial, sans-serif" font-size="12" fill="#4B5563">0.00</text>
<line x1="90" x2="1050" y1="325.0" y2="325.0" stroke="#E5E7EB"/>
<text x="78" y="329.0" text-anchor="end" font-family="Arial, sans-serif" font-size="12" fill="#4B5563">0.25</text>
<line x1="90" x2="1050" y1="240.0" y2="240.0" stroke="#E5E7EB"/>
<text x="78" y="244.0" text-anchor="end" font-family="Arial, sans-serif" font-size="12" fill="#4B5563">0.50</text>
<line x1="90" x2="1050" y1="155.0" y2="155.0" stroke="#E5E7EB"/>
<text x="78" y="159.0" text-anchor="end" font-family="Arial, sans-serif" font-size="12" fill="#4B5563">0.75</text>
<line x1="90" x2="1050" y1="70.0" y2="70.0" stroke="#E5E7EB"/>
<text x="78" y="74.0" text-anchor="end" font-family="Arial, sans-serif" font-size="12" fill="#4B5563">1.00</text>
<text x="170.0" y="460" text-anchor="middle" font-family="Arial, sans-serif" font-size="13" fill="#111827">Recall@2</text>
<rect x="128.8" y="227.0" width="17.6" height="183.0" fill="#2563EB" rx="2"/>
<rect x="150.4" y="171.4" width="17.6" height="238.6" fill="#F97316" rx="2"/>
<rect x="172.0" y="162.6" width="17.6" height="247.4" fill="#14B8A6" rx="2"/>
<rect x="193.6" y="142.5" width="17.6" height="267.5" fill="#DC2626" rx="2"/>
<text x="202.4" y="137.5" text-anchor="middle" font-family="Arial, sans-serif" font-size="10" fill="#374151">0.787</text>
<text x="330.0" y="460" text-anchor="middle" font-family="Arial, sans-serif" font-size="13" fill="#111827">Recall@5</text>
<rect x="288.8" y="179.6" width="17.6" height="230.4" fill="#2563EB" rx="2"/>
<rect x="310.4" y="97.5" width="17.6" height="312.5" fill="#F97316" rx="2"/>
<rect x="332.0" y="92.1" width="17.6" height="317.9" fill="#14B8A6" rx="2"/>
<rect x="353.6" y="80.0" width="17.6" height="330.0" fill="#DC2626" rx="2"/>
<text x="362.4" y="75.0" text-anchor="middle" font-family="Arial, sans-serif" font-size="10" fill="#374151">0.971</text>
<text x="490.0" y="460" text-anchor="middle" font-family="Arial, sans-serif" font-size="13" fill="#111827">Recall@10</text>
<rect x="448.8" y="139.6" width="17.6" height="270.4" fill="#2563EB" rx="2"/>
<rect x="470.4" y="76.3" width="17.6" height="333.7" fill="#F97316" rx="2"/>
<rect x="492.0" y="78.8" width="17.6" height="331.2" fill="#14B8A6" rx="2"/>
<rect x="513.6" y="73.2" width="17.6" height="336.8" fill="#DC2626" rx="2"/>
<text x="522.4" y="68.2" text-anchor="middle" font-family="Arial, sans-serif" font-size="10" fill="#374151">0.991</text>
<text x="650.0" y="460" text-anchor="middle" font-family="Arial, sans-serif" font-size="13" fill="#111827">Full Support@5</text>
<rect x="608.8" y="286.6" width="17.6" height="123.4" fill="#2563EB" rx="2"/>
<rect x="630.4" y="133.1" width="17.6" height="276.9" fill="#F97316" rx="2"/>
<rect x="652.0" y="112.0" width="17.6" height="298.0" fill="#14B8A6" rx="2"/>
<rect x="673.6" y="88.9" width="17.6" height="321.1" fill="#DC2626" rx="2"/>
<text x="682.4" y="83.9" text-anchor="middle" font-family="Arial, sans-serif" font-size="10" fill="#374151">0.944</text>
<text x="810.0" y="460" text-anchor="middle" font-family="Arial, sans-serif" font-size="13" fill="#111827">Full Support@10</text>
<rect x="768.8" y="220.1" width="17.6" height="189.9" fill="#2563EB" rx="2"/>
<rect x="790.4" y="83.1" width="17.6" height="326.9" fill="#F97316" rx="2"/>
<rect x="812.0" y="86.8" width="17.6" height="323.2" fill="#14B8A6" rx="2"/>
<rect x="833.6" y="76.0" width="17.6" height="334.0" fill="#DC2626" rx="2"/>
<text x="842.4" y="71.0" text-anchor="middle" font-family="Arial, sans-serif" font-size="10" fill="#374151">0.982</text>
<text x="970.0" y="460" text-anchor="middle" font-family="Arial, sans-serif" font-size="13" fill="#111827">MRR</text>
<rect x="928.8" y="116.5" width="17.6" height="293.5" fill="#2563EB" rx="2"/>
<rect x="950.4" y="88.9" width="17.6" height="321.1" fill="#F97316" rx="2"/>
<rect x="972.0" y="86.1" width="17.6" height="323.9" fill="#14B8A6" rx="2"/>
<rect x="993.6" y="78.6" width="17.6" height="331.4" fill="#DC2626" rx="2"/>
<text x="1002.4" y="73.6" text-anchor="middle" font-family="Arial, sans-serif" font-size="10" fill="#374151">0.975</text>
<rect x="90" y="490" width="14" height="14" fill="#2563EB" rx="2"/>
<text x="112" y="502" font-family="Arial, sans-serif" font-size="13" fill="#111827">Dense</text>
<rect x="340" y="490" width="14" height="14" fill="#F97316" rx="2"/>
<text x="362" y="502" font-family="Arial, sans-serif" font-size="13" fill="#111827">Dense-FT</text>
<rect x="590" y="490" width="14" height="14" fill="#14B8A6" rx="2"/>
<text x="612" y="502" font-family="Arial, sans-serif" font-size="13" fill="#111827">Dense-RGCN</text>
<rect x="840" y="490" width="14" height="14" fill="#DC2626" rx="2"/>
<text x="862" y="502" font-family="Arial, sans-serif" font-size="13" fill="#111827">Dense-FT-RGCN</text>
</svg>