<svg xmlns="http://www.w3.org/2000/svg" width="1080" height="560" viewBox="0 0 1080 560">
<rect width="100%" height="100%" fill="#ffffff"/>
<text x="90" y="34" font-family="Arial, sans-serif" font-size="22" font-weight="700" fill="#111827">Path and Edge Recovery</text>
<line x1="90" x2="1050" y1="410.0" y2="410.0" stroke="#E5E7EB"/>
<text x="78" y="414.0" text-anchor="end" font-family="Arial, sans-serif" font-size="12" fill="#4B5563">0.00</text>
<line x1="90" x2="1050" y1="325.0" y2="325.0" stroke="#E5E7EB"/>
<text x="78" y="329.0" text-anchor="end" font-family="Arial, sans-serif" font-size="12" fill="#4B5563">0.25</text>
<line x1="90" x2="1050" y1="240.0" y2="240.0" stroke="#E5E7EB"/>
<text x="78" y="244.0" text-anchor="end" font-family="Arial, sans-serif" font-size="12" fill="#4B5563">0.50</text>
<line x1="90" x2="1050" y1="155.0" y2="155.0" stroke="#E5E7EB"/>
<text x="78" y="159.0" text-anchor="end" font-family="Arial, sans-serif" font-size="12" fill="#4B5563">0.75</text>
<line x1="90" x2="1050" y1="70.0" y2="70.0" stroke="#E5E7EB"/>
<text x="78" y="74.0" text-anchor="end" font-family="Arial, sans-serif" font-size="12" fill="#4B5563">1.00</text>
<text x="330.0" y="460" text-anchor="middle" font-family="Arial, sans-serif" font-size="13" fill="#111827">Path Recall@10</text>
<rect x="207.0" y="279.4" width="52.8" height="130.6" fill="#8B5CF6" rx="2"/>
<rect x="335.8" y="212.4" width="52.8" height="197.6" fill="#14B8A6" rx="2"/>
<rect x="464.6" y="103.5" width="52.8" height="306.5" fill="#DC2626" rx="2"/>
<text x="491.0" y="98.5" text-anchor="middle" font-family="Arial, sans-serif" font-size="10" fill="#374151">0.902</text>
<text x="810.0" y="460" text-anchor="middle" font-family="Arial, sans-serif" font-size="13" fill="#111827">Edge Recall@10</text>
<rect x="687.0" y="280.1" width="52.8" height="129.9" fill="#8B5CF6" rx="2"/>
<rect x="815.8" y="215.4" width="52.8" height="194.6" fill="#14B8A6" rx="2"/>
<rect x="944.6" y="116.7" width="52.8" height="293.3" fill="#DC2626" rx="2"/>
<text x="971.0" y="111.7" text-anchor="middle" font-family="Arial, sans-serif" font-size="10" fill="#374151">0.863</text>
<rect x="90" y="490" width="14" height="14" fill="#6B7280" rx="2"/>
<text x="112" y="502" font-family="Arial, sans-serif" font-size="13" fill="#111827">BM25</text>
<rect x="390" y="490" width="14" height="14" fill="#8B5CF6" rx="2"/>
<text x="412" y="502" font-family="Arial, sans-serif" font-size="13" fill="#111827">BM25 + Graph</text>
<rect x="690" y="490" width="14" height="14" fill="#2563EB" rx="2"/>
<text x="712" y="502" font-family="Arial, sans-serif" font-size="13" fill="#111827">Dense</text>
<rect x="90" y="518" width="14" height="14" fill="#14B8A6" rx="2"/>
<text x="112" y="530" font-family="Arial, sans-serif" font-size="13" fill="#111827">Dense + Graph</text>
<rect x="390" y="518" width="14" height="14" fill="#F97316" rx="2"/>
<text x="412" y="530" font-family="Arial, sans-serif" font-size="13" fill="#111827">Dense-FT</text>
<rect x="690" y="518" width="14" height="14" fill="#DC2626" rx="2"/>
<text x="712" y="530" font-family="Arial, sans-serif" font-size="13" fill="#111827">Trainable Graph Retriever</text>
</svg>