<svg xmlns="http://www.w3.org/2000/svg" width="1120" height="570" viewBox="0 0 1120 570" role="img">
<title>Dense vs Memory Stream</title>
<rect width="100%" height="100%" fill="#ffffff"/>
<text x="560" y="36" text-anchor="middle" font-family="Arial, Helvetica, sans-serif" font-size="22" font-weight="700" fill="#1f2933">Dense vs Memory Stream</text>
<line x1="86.0" y1="420.0" x2="1080.0" y2="420.0" stroke="#d8dee5"/>
<text x="74.0" y="424.0" text-anchor="end" font-family="Arial, Helvetica, sans-serif" font-size="12" fill="#64748b">0.00</text>
<line x1="86.0" y1="335.5" x2="1080.0" y2="335.5" stroke="#d8dee5"/>
<text x="74.0" y="339.5" text-anchor="end" font-family="Arial, Helvetica, sans-serif" font-size="12" fill="#64748b">0.25</text>
<line x1="86.0" y1="251.0" x2="1080.0" y2="251.0" stroke="#d8dee5"/>
<text x="74.0" y="255.0" text-anchor="end" font-family="Arial, Helvetica, sans-serif" font-size="12" fill="#64748b">0.50</text>
<line x1="86.0" y1="166.5" x2="1080.0" y2="166.5" stroke="#d8dee5"/>
<text x="74.0" y="170.5" text-anchor="end" font-family="Arial, Helvetica, sans-serif" font-size="12" fill="#64748b">0.75</text>
<line x1="86.0" y1="82.0" x2="1080.0" y2="82.0" stroke="#d8dee5"/>
<text x="74.0" y="86.0" text-anchor="end" font-family="Arial, Helvetica, sans-serif" font-size="12" fill="#64748b">1.00</text>
<line x1="86.0" y1="82.0" x2="86.0" y2="420.0" stroke="#64748b" stroke-width="1.2"/>
<line x1="86.0" y1="420.0" x2="1080.0" y2="420.0" stroke="#64748b" stroke-width="1.2"/>
<rect x="124.0" y="147.9" width="30.0" height="272.1" fill="#2e6fbb" rx="2"/>
<rect x="160.0" y="147.9" width="30.0" height="272.1" fill="#7b5fb2" rx="2"/>
<text x="157.0" y="450" text-anchor="middle" font-family="Arial, Helvetica, sans-serif" font-size="12" fill="#1f2933">Turn R@5</text>
<rect x="266.0" y="104.3" width="30.0" height="315.7" fill="#2e6fbb" rx="2"/>
<rect x="302.0" y="104.3" width="30.0" height="315.7" fill="#7b5fb2" rx="2"/>
<text x="299.0" y="450" text-anchor="middle" font-family="Arial, Helvetica, sans-serif" font-size="12" fill="#1f2933">Turn R@10</text>
<rect x="408.0" y="132.7" width="30.0" height="287.3" fill="#2e6fbb" rx="2"/>
<rect x="444.0" y="132.7" width="30.0" height="287.3" fill="#7b5fb2" rx="2"/>
<text x="441.0" y="450" text-anchor="middle" font-family="Arial, Helvetica, sans-serif" font-size="12" fill="#1f2933">Full Turn@10</text>
<rect x="550.0" y="112.3" width="30.0" height="307.7" fill="#2e6fbb" rx="2"/>
<rect x="586.0" y="112.3" width="30.0" height="307.7" fill="#7b5fb2" rx="2"/>
<text x="583.0" y="450" text-anchor="middle" font-family="Arial, Helvetica, sans-serif" font-size="12" fill="#1f2933">Session R@5</text>
<rect x="692.0" y="86.9" width="30.0" height="333.1" fill="#2e6fbb" rx="2"/>
<rect x="728.0" y="86.9" width="30.0" height="333.1" fill="#7b5fb2" rx="2"/>
<text x="725.0" y="450" text-anchor="middle" font-family="Arial, Helvetica, sans-serif" font-size="12" fill="#1f2933">Session R@10</text>
<rect x="834.0" y="98.9" width="30.0" height="321.1" fill="#2e6fbb" rx="2"/>
<rect x="870.0" y="98.9" width="30.0" height="321.1" fill="#7b5fb2" rx="2"/>
<text x="867.0" y="450" text-anchor="middle" font-family="Arial, Helvetica, sans-serif" font-size="12" fill="#1f2933">Full Session@10</text>
<rect x="976.0" y="204.8" width="30.0" height="215.2" fill="#2e6fbb" rx="2"/>
<text x="991.0" y="198.8" text-anchor="middle" font-family="Arial, Helvetica, sans-serif" font-size="11" fill="#2e6fbb">0.637</text>
<rect x="1012.0" y="200.6" width="30.0" height="219.4" fill="#7b5fb2" rx="2"/>
<text x="1027.0" y="194.6" text-anchor="middle" font-family="Arial, Helvetica, sans-serif" font-size="11" fill="#7b5fb2">0.649</text>
<text x="1009.0" y="450" text-anchor="middle" font-family="Arial, Helvetica, sans-serif" font-size="12" fill="#1f2933">MRR</text>
<rect x="86" y="510" width="16" height="16" fill="#2e6fbb" rx="2"/>
<text x="110" y="523" font-family="Arial, Helvetica, sans-serif" font-size="13" fill="#1f2933">Dense</text>
<rect x="236" y="510" width="16" height="16" fill="#7b5fb2" rx="2"/>
<text x="260" y="523" font-family="Arial, Helvetica, sans-serif" font-size="13" fill="#1f2933">Memory Stream</text>
</svg>