<svg xmlns="http://www.w3.org/2000/svg" width="1280" height="650" viewBox="0 0 1280 650" role="img">
<title>LongMemEval V1 Main Retrieval Metrics</title>
<rect width="100%" height="100%" fill="#ffffff"/>
<text x="640" y="36" text-anchor="middle" font-family="Arial, Helvetica, sans-serif" font-size="22" font-weight="700" fill="#1f2933">LongMemEval V1 Main Retrieval Metrics</text>
<line x1="86.0" y1="442.0" x2="1238.0" y2="442.0" stroke="#d8dee5" stroke-width="1"/>
<text x="74.0" y="446.0" text-anchor="end" font-family="Arial, Helvetica, sans-serif" font-size="12" fill="#64748b">0.00</text>
<line x1="86.0" y1="351.0" x2="1238.0" y2="351.0" stroke="#d8dee5" stroke-width="1"/>
<text x="74.0" y="355.0" text-anchor="end" font-family="Arial, Helvetica, sans-serif" font-size="12" fill="#64748b">0.25</text>
<line x1="86.0" y1="260.0" x2="1238.0" y2="260.0" stroke="#d8dee5" stroke-width="1"/>
<text x="74.0" y="264.0" text-anchor="end" font-family="Arial, Helvetica, sans-serif" font-size="12" fill="#64748b">0.50</text>
<line x1="86.0" y1="169.0" x2="1238.0" y2="169.0" stroke="#d8dee5" stroke-width="1"/>
<text x="74.0" y="173.0" text-anchor="end" font-family="Arial, Helvetica, sans-serif" font-size="12" fill="#64748b">0.75</text>
<line x1="86.0" y1="78.0" x2="1238.0" y2="78.0" stroke="#d8dee5" stroke-width="1"/>
<text x="74.0" y="82.0" text-anchor="end" font-family="Arial, Helvetica, sans-serif" font-size="12" fill="#64748b">1.00</text>
<line x1="86.0" y1="78.0" x2="86.0" y2="442.0" stroke="#64748b" stroke-width="1.2"/>
<line x1="86.0" y1="442.0" x2="1238.0" y2="442.0" stroke="#64748b" stroke-width="1.2"/>
<text x="182.0" y="470" text-anchor="middle" font-family="Arial, Helvetica, sans-serif" font-size="12" fill="#1f2933">Turn R@5</text>
<rect x="127.0" y="204.8" width="12.0" height="237.2" fill="#7f8c8d" rx="2"/>
<rect x="141.0" y="210.9" width="12.0" height="231.1" fill="#16a085" rx="2"/>
<rect x="155.0" y="149.0" width="12.0" height="293.0" fill="#2e6fbb" rx="2"/>
<rect x="169.0" y="156.0" width="12.0" height="286.0" fill="#d9842b" rx="2"/>
<rect x="183.0" y="149.0" width="12.0" height="293.0" fill="#7b5fb2" rx="2"/>
<rect x="197.0" y="98.3" width="12.0" height="343.7" fill="#c0392b" rx="2"/>
<rect x="211.0" y="135.0" width="12.0" height="307.0" fill="#2f9d64" rx="2"/>
<rect x="225.0" y="120.2" width="12.0" height="321.8" fill="#8e5a2a" rx="2"/>
<text x="374.0" y="470" text-anchor="middle" font-family="Arial, Helvetica, sans-serif" font-size="12" fill="#1f2933">Turn R@10</text>
<rect x="319.0" y="160.5" width="12.0" height="281.5" fill="#7f8c8d" rx="2"/>
<rect x="333.0" y="157.2" width="12.0" height="284.8" fill="#16a085" rx="2"/>
<rect x="347.0" y="102.0" width="12.0" height="340.0" fill="#2e6fbb" rx="2"/>
<rect x="361.0" y="100.4" width="12.0" height="341.6" fill="#d9842b" rx="2"/>
<rect x="375.0" y="102.0" width="12.0" height="340.0" fill="#7b5fb2" rx="2"/>
<rect x="389.0" y="78.0" width="12.0" height="364.0" fill="#c0392b" rx="2"/>
<rect x="403.0" y="104.4" width="12.0" height="337.6" fill="#2f9d64" rx="2"/>
<rect x="417.0" y="90.7" width="12.0" height="351.3" fill="#8e5a2a" rx="2"/>
<text x="566.0" y="470" text-anchor="middle" font-family="Arial, Helvetica, sans-serif" font-size="12" fill="#1f2933">Full Turn@10</text>
<rect x="511.0" y="196.3" width="12.0" height="245.7" fill="#7f8c8d" rx="2"/>
<rect x="525.0" y="178.1" width="12.0" height="263.9" fill="#16a085" rx="2"/>
<rect x="539.0" y="132.6" width="12.0" height="309.4" fill="#2e6fbb" rx="2"/>
<rect x="553.0" y="132.6" width="12.0" height="309.4" fill="#d9842b" rx="2"/>
<rect x="567.0" y="132.6" width="12.0" height="309.4" fill="#7b5fb2" rx="2"/>
<rect x="581.0" y="78.0" width="12.0" height="364.0" fill="#c0392b" rx="2"/>
<text x="587.0" y="73.0" text-anchor="middle" font-family="Arial, Helvetica, sans-serif" font-size="10" fill="#374151">1.000</text>
<rect x="595.0" y="123.5" width="12.0" height="318.5" fill="#2f9d64" rx="2"/>
<rect x="609.0" y="105.3" width="12.0" height="336.7" fill="#8e5a2a" rx="2"/>
<text x="615.0" y="100.3" text-anchor="middle" font-family="Arial, Helvetica, sans-serif" font-size="10" fill="#374151">0.925</text>
<text x="758.0" y="470" text-anchor="middle" font-family="Arial, Helvetica, sans-serif" font-size="12" fill="#1f2933">Session R@10</text>
<rect x="703.0" y="114.4" width="12.0" height="327.6" fill="#7f8c8d" rx="2"/>
<rect x="717.0" y="123.5" width="12.0" height="318.5" fill="#16a085" rx="2"/>
<rect x="731.0" y="83.3" width="12.0" height="358.7" fill="#2e6fbb" rx="2"/>
<rect x="745.0" y="83.3" width="12.0" height="358.7" fill="#d9842b" rx="2"/>
<rect x="759.0" y="83.3" width="12.0" height="358.7" fill="#7b5fb2" rx="2"/>
<rect x="773.0" y="78.0" width="12.0" height="364.0" fill="#c0392b" rx="2"/>
<rect x="787.0" y="87.1" width="12.0" height="354.9" fill="#2f9d64" rx="2"/>
<rect x="801.0" y="78.0" width="12.0" height="364.0" fill="#8e5a2a" rx="2"/>
<text x="950.0" y="470" text-anchor="middle" font-family="Arial, Helvetica, sans-serif" font-size="12" fill="#1f2933">Full Session@10</text>
<rect x="895.0" y="132.6" width="12.0" height="309.4" fill="#7f8c8d" rx="2"/>
<rect x="909.0" y="141.7" width="12.0" height="300.3" fill="#16a085" rx="2"/>
<rect x="923.0" y="96.2" width="12.0" height="345.8" fill="#2e6fbb" rx="2"/>
<rect x="937.0" y="96.2" width="12.0" height="345.8" fill="#d9842b" rx="2"/>
<rect x="951.0" y="96.2" width="12.0" height="345.8" fill="#7b5fb2" rx="2"/>
<rect x="965.0" y="78.0" width="12.0" height="364.0" fill="#c0392b" rx="2"/>
<rect x="979.0" y="87.1" width="12.0" height="354.9" fill="#2f9d64" rx="2"/>
<rect x="993.0" y="78.0" width="12.0" height="364.0" fill="#8e5a2a" rx="2"/>
<text x="1142.0" y="470" text-anchor="middle" font-family="Arial, Helvetica, sans-serif" font-size="12" fill="#1f2933">MRR</text>
<rect x="1087.0" y="243.1" width="12.0" height="198.9" fill="#7f8c8d" rx="2"/>
<rect x="1101.0" y="247.4" width="12.0" height="194.6" fill="#16a085" rx="2"/>
<rect x="1115.0" y="210.2" width="12.0" height="231.8" fill="#2e6fbb" rx="2"/>
<rect x="1129.0" y="206.3" width="12.0" height="235.7" fill="#d9842b" rx="2"/>
<rect x="1143.0" y="205.7" width="12.0" height="236.3" fill="#7b5fb2" rx="2"/>
<rect x="1157.0" y="130.3" width="12.0" height="311.7" fill="#c0392b" rx="2"/>
<text x="1163.0" y="125.3" text-anchor="middle" font-family="Arial, Helvetica, sans-serif" font-size="10" fill="#374151">0.856</text>
<rect x="1171.0" y="160.0" width="12.0" height="282.0" fill="#2f9d64" rx="2"/>
<rect x="1185.0" y="150.7" width="12.0" height="291.3" fill="#8e5a2a" rx="2"/>
<text x="1191.0" y="145.7" text-anchor="middle" font-family="Arial, Helvetica, sans-serif" font-size="10" fill="#374151">0.800</text>
<rect x="86" y="515" width="14" height="14" fill="#7f8c8d" rx="2"/>
<text x="108" y="527" font-family="Arial, Helvetica, sans-serif" font-size="13" fill="#1f2933">BM25</text>
<rect x="300" y="515" width="14" height="14" fill="#16a085" rx="2"/>
<text x="322" y="527" font-family="Arial, Helvetica, sans-serif" font-size="13" fill="#1f2933">BM25 + Graph</text>
<rect x="514" y="515" width="14" height="14" fill="#2e6fbb" rx="2"/>
<text x="536" y="527" font-family="Arial, Helvetica, sans-serif" font-size="13" fill="#1f2933">Dense</text>
<rect x="728" y="515" width="14" height="14" fill="#d9842b" rx="2"/>
<text x="750" y="527" font-family="Arial, Helvetica, sans-serif" font-size="13" fill="#1f2933">Dense + Graph</text>
<rect x="86" y="542" width="14" height="14" fill="#7b5fb2" rx="2"/>
<text x="108" y="554" font-family="Arial, Helvetica, sans-serif" font-size="13" fill="#1f2933">Memory Stream</text>
<rect x="300" y="542" width="14" height="14" fill="#c0392b" rx="2"/>
<text x="322" y="554" font-family="Arial, Helvetica, sans-serif" font-size="13" fill="#1f2933">Dense-FT</text>
<rect x="514" y="542" width="14" height="14" fill="#2f9d64" rx="2"/>
<text x="536" y="554" font-family="Arial, Helvetica, sans-serif" font-size="13" fill="#1f2933">Graph Retriever (Dense)</text>
<rect x="728" y="542" width="14" height="14" fill="#8e5a2a" rx="2"/>
<text x="750" y="554" font-family="Arial, Helvetica, sans-serif" font-size="13" fill="#1f2933">Graph Retriever (Dense-FT)</text>
</svg>